<svg xmlns="http://www.w3.org/2000/svg" xmlns:xlink="http://www.w3.org/1999/xlink" width="138.979" height="138.979" viewBox="0 0 138.979 138.979"><defs><clipPath id="a"><rect width="138.979" height="138.979" fill="none" stroke="#707070" stroke-width="1"/></clipPath></defs><g opacity="0.2"><g clip-path="url(#a)"><g transform="translate(30.6 30.917)"><path d="M-16.37,0-43.641,27.271" transform="translate(43.641)" fill="none" stroke="#b3b3ff" stroke-miterlimit="10" stroke-width="1"/></g><g transform="translate(86.41 86.093)"><path d="M0-16.37,27.271-43.641" transform="translate(0 43.641)" fill="none" stroke="#b3b3ff" stroke-miterlimit="10" stroke-width="1"/></g><g transform="translate(28.381 28.381)"><path d="M-28.743,0-76.625,47.882" transform="translate(76.625)" fill="none" stroke="#b3b3ff" stroke-miterlimit="10" stroke-width="1"/></g><g transform="translate(68.018 68.019)"><path d="M0-28.743,47.882-76.625" transform="translate(0 76.625)" fill="none" stroke="#b3b3ff" stroke-miterlimit="10" stroke-width="1"/></g><g transform="translate(31.552 31.552)"><path d="M-34.454,0l-57.4,57.4" transform="translate(91.849)" fill="none" stroke="#b3b3ff" stroke-miterlimit="10" stroke-width="1"/></g><g transform="translate(55.334 55.334)"><path d="M0-34.454l57.4-57.4" transform="translate(0 91.849)" fill="none" stroke="#b3b3ff" stroke-miterlimit="10" stroke-width="1"/></g><g transform="translate(34.247 34.247)"><path d="M-35.977,0-95.909,59.932" transform="translate(95.909)" fill="none" stroke="#b3b3ff" stroke-miterlimit="10" stroke-width="1"/></g><g transform="translate(50.102 50.102)"><path d="M0-35.977,59.932-95.909" transform="translate(0 95.909)" fill="none" stroke="#b3b3ff" stroke-miterlimit="10" stroke-width="1"/></g><g transform="translate(37.26 37.259)"><path d="M-37.118,0-98.953,61.835" transform="translate(98.953)" fill="none" stroke="#b3b3ff" stroke-miterlimit="10" stroke-width="1"/></g><g transform="translate(45.187 45.187)"><path d="M0-37.118,61.835-98.953" transform="translate(0 98.953)" fill="none" stroke="#b3b3ff" stroke-miterlimit="10" stroke-width="1"/></g><g transform="translate(41.223 41.223)"><path d="M-37.118,0-98.953,61.835" transform="translate(98.953)" fill="none" stroke="#b3b3ff" stroke-miterlimit="10" stroke-width="1"/></g><g transform="translate(28.539 28.539)"><path d="M-23.794,0-63.432,39.638" transform="translate(63.432)" fill="none" stroke="#b3b3ff" stroke-miterlimit="10" stroke-width="1"/></g><g transform="translate(76.104 76.104)"><path d="M0-23.794,39.638-63.432" transform="translate(0 63.432)" fill="none" stroke="#b3b3ff" stroke-miterlimit="10" stroke-width="1"/></g><g transform="translate(29.49 29.49)"><path d="M-32.17,0-85.76,53.59" transform="translate(85.76)" fill="none" stroke="#b3b3ff" stroke-miterlimit="10" stroke-width="1"/></g><g transform="translate(61.201 61.2)"><path d="M0-32.17,53.59-85.76" transform="translate(0 85.76)" fill="none" stroke="#b3b3ff" stroke-miterlimit="10" stroke-width="1"/></g></g></g></svg>