<svg xmlns="http://www.w3.org/2000/svg" xmlns:xlink="http://www.w3.org/1999/xlink" width="260.722" height="50.545" viewBox="0 0 260.722 50.545"><defs><clipPath id="a"><path d="M0-18.228H58.611V-68.772H0Z" transform="translate(0 68.772)" fill="none"/></clipPath><clipPath id="b"><path d="M11.167-66.764,2.023-57.619A6.89,6.89,0,0,0,0-52.735H0L.006-21a2.77,2.77,0,0,0,2.769,2.771H7.7a3.442,3.442,0,0,0,2.441-1.012h0l9.084-9.086V-65.313a3.452,3.452,0,0,1,3.451-3.453h0l-6.643-.007a6.881,6.881,0,0,0-4.869,2.008" transform="translate(0 68.772)" fill="none"/></clipPath><linearGradient id="c" x1="0.042" y1="0.882" x2="0.192" y2="0.882" gradientUnits="objectBoundingBox"><stop offset="0" stop-color="#ff2e24"/><stop offset="0.1" stop-color="#ff2e24"/><stop offset="0.2" stop-color="#ff2e24"/><stop offset="0.3" stop-color="#ff2e24"/><stop offset="0.4" stop-color="#ff2e24"/><stop offset="0.5" stop-color="#ff2e24"/><stop offset="0.6" stop-color="#f92c24"/><stop offset="0.7" stop-color="#e52b25"/><stop offset="0.8" stop-color="#cf2825"/><stop offset="0.9" stop-color="#b92726"/><stop offset="1" stop-color="#a02927"/></linearGradient><clipPath id="d"><path d="M12.924-10.126a3.442,3.442,0,0,1-2.441,1.012h0l26.808,0a6.889,6.889,0,0,0,4.879-2.017h0l6.681-6.692a3.451,3.451,0,0,0,0-4.883h0L37.177-34.386Z" transform="translate(-10.483 34.386)" fill="none"/></clipPath><linearGradient id="e" x1="0.03" y1="0.75" x2="0.181" y2="0.75" gradientUnits="objectBoundingBox"><stop offset="0" stop-color="#ff2e24"/><stop offset="0.1" stop-color="#ff2e24"/><stop offset="0.2" stop-color="#ff2e24"/><stop offset="0.3" stop-color="#ff2e24"/><stop offset="0.4" stop-color="#ff2e24"/><stop offset="0.5" stop-color="#ff2e24"/><stop offset="0.6" stop-color="#f52c25"/><stop offset="0.7" stop-color="#dd2a24"/><stop offset="0.8" stop-color="#c42826"/><stop offset="0.9" stop-color="#ad2827"/><stop offset="1" stop-color="#a02927"/></linearGradient><clipPath id="f"><path d="M29.613-68.763a3.452,3.452,0,0,0-3.451,3.453h0v6.64l26.846,26.85a3.451,3.451,0,0,1,0,4.883h0l2.447-2.437a6.888,6.888,0,0,0,2.024-4.887h0V-65.993a2.771,2.771,0,0,0-2.77-2.77H29.613Z" transform="translate(-26.162 68.763)" fill="none"/></clipPath><linearGradient id="g" x1="0.074" y1="0.414" x2="0.194" y2="0.414" gradientUnits="objectBoundingBox"><stop offset="0" stop-color="#a02927"/><stop offset="0.1" stop-color="#af2826"/><stop offset="0.2" stop-color="#c22826"/><stop offset="0.3" stop-color="#da2924"/><stop offset="0.4" stop-color="#f32c25"/><stop offset="0.5" stop-color="#ff2e24"/><stop offset="0.6" stop-color="#ff2e24"/><stop offset="0.7" stop-color="#ff2e24"/><stop offset="0.8" stop-color="#ff2e24"/><stop offset="0.9" stop-color="#ff2e24"/><stop offset="1" stop-color="#ff2e24"/></linearGradient><clipPath id="h"><path d="M92.805-28.395H285.32V-54.482H92.805Z" transform="translate(-92.805 54.482)" fill="none"/></clipPath><clipPath id="i"><path d="M83.333-28.395H282.81V-54.482H83.333Z" transform="translate(-83.333 54.482)" fill="#fff"/></clipPath><clipPath id="j"><path d="M83.333-28.395H282.81V-54.482H83.333Z" transform="translate(-83.333 54.482)" fill="none"/></clipPath><clipPath id="k"><path d="M210.877-87.139v-33.284a3.106,3.106,0,0,1,3.105-3.107L208-123.536a6.2,6.2,0,0,0-4.382,1.807l-8.229,8.23a6.2,6.2,0,0,0-1.82,4.4l.005,28.56a2.492,2.492,0,0,0,2.492,2.492h4.435a3.1,3.1,0,0,0,2.2-.91Z" transform="translate(-193.573 123.536)" fill="none"/></clipPath><clipPath id="l"><path d="M193.573-123.536h20.41v45.485h-20.41Z" transform="translate(-193.573 123.536)" fill="none"/></clipPath><linearGradient id="m" x1="0.366" y1="0.289" x2="0.5" y2="0.289" gradientUnits="objectBoundingBox"><stop offset="0" stop-color="#ff2d23"/><stop offset="0.1" stop-color="#ff2d23"/><stop offset="0.2" stop-color="#ff2d23"/><stop offset="0.3" stop-color="#ff2d23"/><stop offset="0.4" stop-color="#ff2d23"/><stop offset="0.5" stop-color="#ff2d23"/><stop offset="0.6" stop-color="#fb2d23"/><stop offset="0.7" stop-color="#e82c22"/><stop offset="0.8" stop-color="#d22b22"/><stop offset="0.9" stop-color="#bc2a22"/><stop offset="1" stop-color="#a42a22"/></linearGradient><clipPath id="o"><path d="M227.028-92.593l10.507,10.509a3.106,3.106,0,0,1,0,4.394l-6.013,6.021a6.2,6.2,0,0,1-4.391,1.815l-24.125,0a3.1,3.1,0,0,0,2.2-.91Z" transform="translate(-203.006 92.593)" fill="none"/></clipPath><clipPath id="p"><path d="M203.006-92.593h35.742v22.742H203.006Z" transform="translate(-203.006 92.593)" fill="none"/></clipPath><linearGradient id="q" x1="0.572" y1="-0.121" x2="0.708" y2="-0.121" gradientUnits="objectBoundingBox"><stop offset="0" stop-color="#ff2d23"/><stop offset="0.1" stop-color="#ff2d23"/><stop offset="0.2" stop-color="#ff2d23"/><stop offset="0.3" stop-color="#ff2d23"/><stop offset="0.4" stop-color="#ff2d23"/><stop offset="0.5" stop-color="#ff2d23"/><stop offset="0.6" stop-color="#f72d23"/><stop offset="0.7" stop-color="#df2b22"/><stop offset="0.8" stop-color="#c82b22"/><stop offset="0.9" stop-color="#b02a22"/><stop offset="1" stop-color="#a42a22"/></linearGradient><clipPath id="s"><path d="M245.3-92.48a6.2,6.2,0,0,1-1.821,4.4l-2.2,2.193a3.106,3.106,0,0,0,0-4.394l-24.158-24.162v-5.975a3.106,3.106,0,0,1,3.105-3.107h22.583a2.493,2.493,0,0,1,2.492,2.492Z" transform="translate(-217.117 123.528)" fill="none"/></clipPath><clipPath id="t"><path d="M217.117-123.528H245.3V-85.89H217.117Z" transform="translate(-217.117 123.528)" fill="none"/></clipPath><linearGradient id="u" x1="0.612" y1="-0.424" x2="0.72" y2="-0.424" gradientUnits="objectBoundingBox"><stop offset="0" stop-color="#a42a22"/><stop offset="0.1" stop-color="#b22a22"/><stop offset="0.2" stop-color="#c62a22"/><stop offset="0.3" stop-color="#dd2b22"/><stop offset="0.4" stop-color="#f62d23"/><stop offset="0.5" stop-color="#ff2d23"/><stop offset="0.6" stop-color="#ff2d23"/><stop offset="0.7" stop-color="#ff2d23"/><stop offset="0.8" stop-color="#ff2d23"/><stop offset="0.9" stop-color="#ff2d23"/><stop offset="1" stop-color="#ff2d23"/></linearGradient></defs><g transform="translate(0 68.772)"><g transform="translate(0 -68.772)" clip-path="url(#a)"><g transform="translate(67.281 14.006)"><path d="M-47.194-4.076c0,5.492,8.651,4.405,8.651,6.863,0,.861-1.053,1.149-2.682,1.149A11.381,11.381,0,0,1-47.065,2.31V5.981a12.32,12.32,0,0,0,6.1,1.435c3.671,0,6.959-1.117,6.959-4.724,0-5.618-8.65-4.341-8.65-6.9,0-.925,1.148-1.213,2.139-1.213a10.574,10.574,0,0,1,5.362,1.564v-3.64A12.826,12.826,0,0,0-40.809-8.8c-3.223,0-6.385,1.181-6.385,4.724M-52.945-.692A3.8,3.8,0,0,1-56.9,3.458c-2.522,0-3.926-1.788-3.926-4.15s1.4-4.15,3.926-4.15a3.8,3.8,0,0,1,3.959,4.15m-12.417,0c0,5.362,4.02,8.108,8.458,8.108,4.471,0,8.46-2.746,8.46-8.108S-52.434-8.8-56.9-8.8c-4.438,0-8.458,2.746-8.458,8.108m-25.6,7.66h4.438V-3.118a4.4,4.4,0,0,1,3.287-1.851,2.3,2.3,0,0,1,2.394,2.521V6.968h4.405v-9.7a5.111,5.111,0,0,0-.031-.7,4.2,4.2,0,0,1,3.032-1.532,2.3,2.3,0,0,1,2.394,2.521V6.968h4.405v-9.7c0-2.713-1.405-6.065-5.714-6.065a7.321,7.321,0,0,0-5.107,2.267A5.35,5.35,0,0,0-82.148-8.8a6.55,6.55,0,0,0-4.884,2.234V-8.353h-3.926Zm-14.956-7.66c0-2.394,1.5-4.373,4.022-4.373A4.373,4.373,0,0,1-97.9-2.512v3.64a4.375,4.375,0,0,1-3.991,2.554c-2.521,0-4.022-1.98-4.022-4.374m8.525,5.428V6.968H-93.5V-8.353h-3.894V-6.12a6.548,6.548,0,0,0-5.555-2.68c-4.885,0-7.5,3.925-7.5,8.108s2.616,8.108,7.5,8.108a6.55,6.55,0,0,0,5.555-2.68m-27.468-5.2c0,5.458,4.181,7.885,8.363,7.885a13.1,13.1,0,0,0,5.171-1.022V2.468a8.612,8.612,0,0,1-4.309,1.118c-2.394,0-4.693-1.34-4.693-4.277,0-3.1,2.331-4.277,4.757-4.277a7.83,7.83,0,0,1,4.086,1.149v-3.9a10.1,10.1,0,0,0-4.724-1.117c-4.245,0-8.65,2.49-8.65,8.364m-1.922-7.885h-4.437V1.639a4.365,4.365,0,0,1-3.447,1.947A2.687,2.687,0,0,1-137.6.553V-8.353h-4.438V1.128c0,3.542,2.076,6.288,6.225,6.288a6.68,6.68,0,0,0,5.108-2.394V6.968h3.926Zm-22.01,5.841v3.64a4.372,4.372,0,0,1-3.989,2.554c-2.522,0-4.022-1.98-4.022-4.374s1.5-4.373,4.022-4.373a4.371,4.371,0,0,1,3.989,2.552m4.405-12.865h-4.405v8.651A6.594,6.594,0,0,0-153.833-8.8c-4.884,0-7.5,3.925-7.5,8.108s2.619,8.108,7.5,8.108a6.548,6.548,0,0,0,5.555-2.68V6.968h3.893Zm-22.4,13.248h-6.831a3.373,3.373,0,0,1,3.607-3.287,2.953,2.953,0,0,1,3.223,3.287M-178.058-.692c0,5.331,4.023,8.108,8.875,8.108a14.574,14.574,0,0,0,5.618-.958V2.979a11.5,11.5,0,0,1-4.629.927c-2.522,0-4.884-.927-5.4-3.161h10.79c1.022-4.533-1.022-9.545-7.374-9.545a7.719,7.719,0,0,0-7.885,8.108" transform="translate(178.058 15.377)" fill="#131617"/></g></g><g transform="translate(0 -68.772)" clip-path="url(#b)"><g transform="translate(130.361 -130.361) rotate(45)"><path d="M0,184.359,184.359,0,220.1,35.74,35.74,220.1Z" transform="translate(0)" fill="url(#c)"/></g></g><g transform="translate(7.704 -43.5)" clip-path="url(#d)"><g transform="translate(-7.704 -25.272)"><path d="M-10.483-51.579H250.239V-1.035H-10.483Z" transform="translate(10.483 51.579)" fill="url(#e)"/></g></g><g transform="translate(19.228 -68.765)" clip-path="url(#f)"><g transform="translate(-19.228 -0.007)"><path d="M-26.162-28.464H234.56V22.08H-26.162Z" transform="translate(26.162 28.464)" fill="url(#g)"/></g></g><g transform="translate(68.207 -58.27)" clip-path="url(#h)"><g transform="translate(-0.018 10.076)"><path d="M-1.614-1.637c0-.916,1.135-1.2,2.111-1.2A10.419,10.419,0,0,1,5.791-1.291V-4.884A12.648,12.648,0,0,0,.214-6.177c-3.185,0-6.3,1.167-6.3,4.665,0,5.422,8.542,4.35,8.542,6.776C2.452,6.116,1.41,6.4-.2,6.4A11.244,11.244,0,0,1-5.964,4.791V8.416A12.143,12.143,0,0,0,.056,9.834c3.626,0,6.871-1.1,6.871-4.665,0-5.547-8.541-4.285-8.541-6.806" transform="translate(6.09 6.177)" fill="#fff"/></g></g><g transform="translate(61.246 -58.27)" clip-path="url(#i)"><g transform="translate(21.498 10.076)"><path d="M-6.627,0A7.237,7.237,0,0,0-11.67,2.238,5.287,5.287,0,0,0-16.3,0a6.466,6.466,0,0,0-4.821,2.2V.44H-25V15.57h4.382V5.611a4.35,4.35,0,0,1,3.246-1.829,2.269,2.269,0,0,1,2.364,2.489v9.3h4.349s-.008-10.3-.006-10.3A4.137,4.137,0,0,1-7.7,3.782,2.27,2.27,0,0,1-5.334,6.271v9.3H-.986V5.988C-.986,3.31-2.372,0-6.627,0" transform="translate(25.003)" fill="#fff"/></g><g transform="translate(55.208 10.089)"><path d="M-2.859-1.2A3.326,3.326,0,0,0-6.413,2.039H.318A2.911,2.911,0,0,0-2.859-1.2m-.157-3.334C3.243-4.536,5.257.4,4.25,4.87H-6.382c.5,2.2,2.831,3.114,5.317,3.114A11.325,11.325,0,0,0,3.5,7.071V10.5a14.382,14.382,0,0,1-5.536.944c-4.782,0-8.745-2.738-8.745-7.99a7.607,7.607,0,0,1,7.77-7.99" transform="translate(10.786 4.536)" fill="#fff"/></g><g transform="translate(72.152 3.61)"><path d="M-3.04-3.664C-5.525-3.664-7-1.712-7,.646s1.478,4.31,3.963,4.31A4.308,4.308,0,0,0,.892,2.439V-1.147A4.308,4.308,0,0,0-3.04-3.664M5.233-13.823V8.2H1.4v-2.2A6.451,6.451,0,0,1-4.077,8.636c-4.814,0-7.393-3.868-7.393-7.99s2.579-7.99,7.393-7.99A6.5,6.5,0,0,1,.892-5.3v-8.523Z" transform="translate(11.47 13.823)" fill="#fff"/></g><g transform="translate(91.428 10.529)"><path d="M-5.423,0V15.1h-3.87V13.181a6.577,6.577,0,0,1-5.033,2.358c-4.089,0-6.133-2.7-6.133-6.2V0h4.373V8.776a2.648,2.648,0,0,0,2.893,2.989,4.3,4.3,0,0,0,3.4-1.92V0Z" transform="translate(20.459)" fill="#fff"/></g><g transform="translate(108.536 10.057)"><path d="M-3.074,0A9.964,9.964,0,0,1,1.581,1.1V4.94A7.728,7.728,0,0,0-2.445,3.807c-2.391,0-4.687,1.164-4.687,4.215,0,2.894,2.265,4.215,4.624,4.215a8.5,8.5,0,0,0,4.247-1.1v3.87a12.92,12.92,0,0,1-5.1,1.005c-4.122,0-8.242-2.391-8.242-7.769C-11.6,2.454-7.257,0-3.074,0" transform="translate(11.598 0)" fill="#fff"/></g><g transform="translate(123.094 10.089)"><path d="M-3.04-4.436A4.308,4.308,0,0,0,.891-6.952v-3.587A4.308,4.308,0,0,0-3.04-13.055C-5.526-13.055-7-11.1-7-8.745s1.478,4.31,3.964,4.31M-4.079-.756c-4.813,0-7.392-3.869-7.392-7.99s2.579-7.99,7.392-7.99a6.448,6.448,0,0,1,5.473,2.643v-2.2H5.232V-1.2H1.394V-3.4A6.452,6.452,0,0,1-4.079-.756" transform="translate(11.471 16.735)" fill="#fff"/></g><g transform="translate(142.543 10.089)"><path d="M0-5.6V-20.7H3.87v1.762a6.45,6.45,0,0,1,4.812-2.2,5.272,5.272,0,0,1,4.624,2.232,7.225,7.225,0,0,1,5.032-2.232c4.247,0,5.632,3.3,5.632,5.977V-5.6H19.629v-9.28a2.264,2.264,0,0,0-2.36-2.483,4.134,4.134,0,0,0-2.988,1.51,4.949,4.949,0,0,1,.031.691V-5.6H9.971v-9.28a2.264,2.264,0,0,0-2.359-2.483,4.334,4.334,0,0,0-3.239,1.825V-5.6Z" transform="translate(0 21.143)" fill="#fff"/></g><g transform="translate(168.335 10.089)"><path d="M-3.007-1.406c-2.486,0-3.87,1.762-3.87,4.09s1.384,4.089,3.87,4.089a3.748,3.748,0,0,0,3.9-4.089,3.749,3.749,0,0,0-3.9-4.09m0-3.9c4.4,0,8.336,2.705,8.336,7.99s-3.933,7.99-8.336,7.99c-4.372,0-8.337-2.7-8.337-7.99s3.965-7.99,8.337-7.99" transform="translate(11.344 5.306)" fill="#fff"/></g><g transform="translate(186.485 10.089)"><path d="M-2.269,0A12.641,12.641,0,0,1,3.3,1.29V4.876A10.419,10.419,0,0,0-1.987,3.334c-.975,0-2.108.284-2.108,1.2,0,2.517,8.526,1.258,8.526,6.794,0,3.556-3.24,4.655-6.859,4.655a12.116,12.116,0,0,1-6.008-1.416V10.948a11.214,11.214,0,0,0,5.756,1.6c1.605,0,2.644-.282,2.644-1.133C-.035,9-8.56,10.067-8.56,4.655-8.56,1.163-5.445,0-2.269,0" transform="translate(8.56)" fill="#fff"/></g></g><g transform="translate(61.246 -58.27)" clip-path="url(#j)"><g transform="translate(81.021 -50.751)" clip-path="url(#k)"><g clip-path="url(#l)"><g transform="translate(-11.905 -90.112) rotate(45)"><path d="M0,184.359,184.359,0,220.1,35.74,35.74,220.1Z" transform="translate(0)" fill="url(#m)"/></g></g></g></g><g transform="translate(61.246 -58.27)" clip-path="url(#j)"><g transform="translate(87.954 -28.01)" clip-path="url(#o)"><g clip-path="url(#p)"><g transform="translate(-149.2 17.507)"><path d="M-203.006,8.349H57.716V58.893H-203.006Z" transform="translate(203.006 -8.349)" fill="url(#q)"/></g></g></g></g><g transform="translate(61.246 -58.27)" clip-path="url(#j)"><g transform="translate(98.325 -50.745)" clip-path="url(#s)"><g clip-path="url(#t)"><g transform="translate(-159.57 40.243)"><path d="M-217.117,29.15H43.606V79.694H-217.117Z" transform="translate(217.117 -29.15)" fill="url(#u)"/></g></g></g></g></g></svg>