<svg xmlns="http://www.w3.org/2000/svg" width="99.553" height="96.377" viewBox="0 0 99.553 96.377"><g transform="translate(0 -8.167)"><path d="M5.324,67.649a6.412,6.412,0,0,0,12.429-2.2V61.884a7.346,7.346,0,0,1-3.461-.562,11.929,11.929,0,0,1-.3,1.179,7.671,7.671,0,0,1-2.436,3.82,7.111,7.111,0,0,1-5.021,1.455,10.933,10.933,0,0,1-1.213-.127ZM43.1,58.1h12.82V54.068H46.051A2.964,2.964,0,0,0,43.1,57.017Zm12.82,2.916H43.1V65.45a6.41,6.41,0,0,0,12.82,0V61.013Zm39.96,9.734a6.945,6.945,0,0,1,2.039,1.642,6.831,6.831,0,0,1,1.632,4.431v9.833a1.458,1.458,0,0,1-2.916,0V76.82a3.938,3.938,0,0,0-.937-2.552,4.005,4.005,0,0,0-2.017-1.279,9.279,9.279,0,0,1-11.1-.116,2.784,2.784,0,0,0-.86.243,2.668,2.668,0,0,0-.992.81L72.9,84.3a1.464,1.464,0,0,1-1.163.584H61.7a2.687,2.687,0,1,0,0,5.374H73.686a2.62,2.62,0,0,0,1.307-.281,8.637,8.637,0,0,0,2.221-2.486L82.4,80.629a1.454,1.454,0,1,1,2.32,1.753l-4.933,6.537v12.71H96.637V93.256a1.458,1.458,0,0,1,2.916,0v9.833a1.454,1.454,0,0,1-1.455,1.455H1.461A1.458,1.458,0,0,1,0,103.089V93.256a1.458,1.458,0,0,1,2.916,0v8.372H19.771V88.919l-4.938-6.537a1.456,1.456,0,0,1,2.326-1.753l5.071,6.713q.694.918,1.389,1.846a2.683,2.683,0,0,0,.948.788,2.55,2.55,0,0,0,1.218.281H37.86a2.687,2.687,0,1,0,0-5.374H27.818a1.456,1.456,0,0,1-1.163-.584L18.823,73.927a2.7,2.7,0,0,0-1.852-1.053A9.291,9.291,0,0,1,5.871,73a4,4,0,0,0-2,1.246,3.948,3.948,0,0,0-.959,2.579v9.833a1.458,1.458,0,0,1-2.916,0V76.821A6.851,6.851,0,0,1,1.676,72.34a7.019,7.019,0,0,1,2-1.593,9.248,9.248,0,0,1-1.659-5.3V57.017a5.871,5.871,0,0,1,5.859-5.864H14.8a5.872,5.872,0,0,1,5.864,5.864V65.45a9.264,9.264,0,0,1-1.51,5.076,5.644,5.644,0,0,1,1.99,1.648l7.391,9.789h5.837V76.049A6.083,6.083,0,0,1,36.7,71.574a15.326,15.326,0,0,1,4.2-2.541,9.258,9.258,0,0,1-.716-3.583V57.017a5.872,5.872,0,0,1,5.864-5.864H57.383a1.463,1.463,0,0,1,1.461,1.461V65.45a9.328,9.328,0,0,1-.645,3.4,15.871,15.871,0,0,1,4.509,2.59,6.178,6.178,0,0,1,2.469,4.608v5.914h5.837L78.4,72.174a5.583,5.583,0,0,1,2-1.642,9.256,9.256,0,0,1-1.516-5.082V57.017a5.872,5.872,0,0,1,5.865-5.864h6.928a5.871,5.871,0,0,1,5.864,5.864V65.45a9.291,9.291,0,0,1-1.659,5.3Zm-1.654-3.1a10.8,10.8,0,0,1-1.213.127A7.107,7.107,0,0,1,88,66.321a7.642,7.642,0,0,1-2.442-3.82,11.919,11.919,0,0,1-.292-1.179,7.374,7.374,0,0,1-3.467.562V65.45a6.411,6.411,0,0,0,12.429,2.2ZM81.8,58.963a4.752,4.752,0,0,0,3.621-1.075,1.474,1.474,0,0,1,.948-.408,1.451,1.451,0,0,1,1.521,1.383,11.617,11.617,0,0,0,.452,2.783,4.828,4.828,0,0,0,1.477,2.409,4.373,4.373,0,0,0,3.059.816,10.5,10.5,0,0,0,1.747-.254v-7.6a2.974,2.974,0,0,0-2.949-2.949H84.748A2.973,2.973,0,0,0,81.8,57.017Zm-64.046,0V57.017A2.964,2.964,0,0,0,14.8,54.068H7.876a2.964,2.964,0,0,0-2.943,2.949v7.6a10.379,10.379,0,0,0,1.742.254,4.373,4.373,0,0,0,3.059-.816,4.876,4.876,0,0,0,1.483-2.409,11.341,11.341,0,0,0,.446-2.783,1.458,1.458,0,0,1,2.458-.987A4.755,4.755,0,0,0,17.753,58.963ZM42.463,71.54a12.665,12.665,0,0,0-3.825,2.2,3.327,3.327,0,0,0-1.345,2.309v5.914h.568a5.6,5.6,0,0,1,4.917,8.3h14a5.61,5.61,0,0,1,4.922-8.3h.562V76.049a3.435,3.435,0,0,0-1.444-2.4,13.559,13.559,0,0,0-4.123-2.265c-.187.226-.386.446-.59.65a9.295,9.295,0,0,1-13.178,0q-.24-.24-.463-.5ZM12.153,18.964a1.458,1.458,0,0,1,0-2.916h27a1.458,1.458,0,0,1,0,2.916Zm0,15.345a1.461,1.461,0,0,1,0-2.921h13.5a1.461,1.461,0,0,1,0,2.921Zm0-7.672a1.458,1.458,0,0,1,0-2.916h27a1.458,1.458,0,0,1,0,2.916Zm28.49,15.548a4.031,4.031,0,0,0,.943,1.488,4.075,4.075,0,0,0,2.9,1.207h8.571a1.458,1.458,0,0,1,0,2.916H44.491a6.966,6.966,0,0,1-4.966-2.072,7.088,7.088,0,0,1-1.907-3.538H17.285l-6.6,6.6a1.462,1.462,0,0,1-2.5-1.025v-5.7A8.872,8.872,0,0,1,.8,33.344V17.008A8.864,8.864,0,0,1,9.646,8.167H41.658A8.864,8.864,0,0,1,50.5,17.008v2.7h24.77a7.038,7.038,0,0,1,7.022,7.022V40.774a7.042,7.042,0,0,1-5.567,6.868v5.732A1.455,1.455,0,0,1,74.238,54.4L67.629,47.8H59.665a1.458,1.458,0,1,1,0-2.916h8.571a1.44,1.44,0,0,1,1.036.435l4.536,4.536V46.341a1.46,1.46,0,0,1,1.461-1.461,4.121,4.121,0,0,0,4.106-4.106V26.731a4.121,4.121,0,0,0-4.106-4.106H50.5v10.72a8.863,8.863,0,0,1-8.841,8.841H40.644ZM16.678,39.269H41.658a5.946,5.946,0,0,0,5.925-5.925V17.008a5.947,5.947,0,0,0-5.925-5.925H9.646A5.947,5.947,0,0,0,3.72,17.008V33.344A5.947,5.947,0,0,0,9.646,39.27,1.458,1.458,0,0,1,11.1,40.73v3.511L15.648,39.7a1.448,1.448,0,0,1,1.031-.43Zm60.194,53.9H22.686v8.455H76.872V93.173Z" transform="translate(0 0)" fill="#4ce5c6"/></g></svg>