<svg xmlns="http://www.w3.org/2000/svg" xmlns:xlink="http://www.w3.org/1999/xlink" width="101.909" height="101.909" viewBox="0 0 101.909 101.909"><defs><clipPath id="a"><path d="M0-25.409H75.353v-75.353H0Z" transform="translate(0 100.762)" fill="#d6e191"/></clipPath></defs><g transform="matrix(0.883, 0.469, -0.469, 0.883, -11.929, 88.968)"><g transform="translate(0 -100.762)" clip-path="url(#a)"><g transform="translate(0 0)"><path d="M-24.913-3.325H-39.851A17.759,17.759,0,0,0-56.073,7.247,6.484,6.484,0,0,0-59.6,5.008a16.562,16.562,0,0,1,16.49-15.251,1.472,1.472,0,0,0,1.472-1.472,1.472,1.472,0,0,0-1.472-1.472A19.514,19.514,0,0,0-61.118-1.129,19.513,19.513,0,0,0-79.128-13.186,1.472,1.472,0,0,0-80.6-11.714a1.472,1.472,0,0,0,1.472,1.472A16.561,16.561,0,0,1-62.639,5.008a6.479,6.479,0,0,0-3.522,2.239A17.76,17.76,0,0,0-82.384-3.325H-97.322a1.472,1.472,0,0,0-1.472,1.472V19.119a17.765,17.765,0,0,0,12.517,16.95,14.132,14.132,0,0,0-6.63,11.969A14.145,14.145,0,0,0-78.778,62.167,14.153,14.153,0,0,0-64.932,50.856,6.438,6.438,0,0,0-61.118,52.1,6.438,6.438,0,0,0-57.3,50.856,14.153,14.153,0,0,0-43.457,62.167,14.144,14.144,0,0,0-29.328,48.038a14.131,14.131,0,0,0-6.631-11.97,17.738,17.738,0,0,0,11.051-9.876,1.471,1.471,0,0,0-.762-1.937,1.472,1.472,0,0,0-1.937.762,14.8,14.8,0,0,1-13.568,8.892H-54.642v-19.5A14.808,14.808,0,0,1-39.851-.382h13.466V12.5a1.472,1.472,0,0,0,1.472,1.472A1.472,1.472,0,0,0-23.441,12.5V-1.853a1.472,1.472,0,0,0-1.472-1.472m-32.673,25.8H-64.65V16.4h7.064Zm0-6.084-7.064,9.027h7.064v6.083H-64.65Zm0,9.026h7.064v6.083H-64.65Zm3.532-26.68A3.536,3.536,0,0,1-57.586,11.3v2.152H-64.65V11.3a3.536,3.536,0,0,1,3.532-3.532m-19.942,26.14A14.808,14.808,0,0,1-95.851,19.119V-.382h13.467A14.808,14.808,0,0,1-67.593,14.409v19.5Zm13.466,14.129A11.2,11.2,0,0,1-78.778,59.223,11.2,11.2,0,0,1-89.964,48.038,11.2,11.2,0,0,1-78.778,36.853h11.185Zm6.475,1.122a3.536,3.536,0,0,1-3.532-3.532V43.476h7.064v2.152a3.536,3.536,0,0,1-3.532,3.532m17.661-12.307A11.2,11.2,0,0,1-32.271,48.038,11.2,11.2,0,0,1-43.457,59.223,11.2,11.2,0,0,1-54.642,48.038V36.853Z" transform="translate(98.794 13.186)" fill="#d6e191"/></g><g transform="translate(72.409 30.833)"><path d="M-.5,0a1.482,1.482,0,0,0-1.04.431,1.482,1.482,0,0,0-.431,1.04,1.479,1.479,0,0,0,.431,1.04A1.482,1.482,0,0,0-.5,2.943a1.482,1.482,0,0,0,1.04-.431,1.482,1.482,0,0,0,.431-1.04A1.482,1.482,0,0,0,.544.431,1.482,1.482,0,0,0-.5,0" transform="translate(1.968)" fill="#d6e191"/></g></g></g></svg>