<svg xmlns="http://www.w3.org/2000/svg" width="99.553" height="99.553" viewBox="0 0 99.553 99.553"><path d="M80.662,51.235H85a7.35,7.35,0,1,0,0-2.917H80.662a30.8,30.8,0,0,0-8.025-19.34l7.809-7.809a9.33,9.33,0,1,0-2.062-2.062l-7.809,7.809a30.8,30.8,0,0,0-19.34-8.024V14.556a7.351,7.351,0,1,0-2.917,0v4.335a30.8,30.8,0,0,0-19.34,8.024l-7.809-7.809a9.306,9.306,0,0,0-2.327-13.2,1.458,1.458,0,0,0-1.632,2.418,6.4,6.4,0,1,1-5.323-.85,1.458,1.458,0,0,0-.8-2.806,9.316,9.316,0,1,0,8.015,16.5l7.809,7.809a30.8,30.8,0,0,0-8.025,19.34H14.556a7.351,7.351,0,1,0,0,2.917h4.336a30.8,30.8,0,0,0,8.025,19.34l-7.809,7.809a9.33,9.33,0,1,0,2.062,2.062l7.809-7.809a30.8,30.8,0,0,0,19.34,8.024V85a7.351,7.351,0,1,0,2.917,0V80.662a30.8,30.8,0,0,0,19.34-8.024l7.809,7.809a9.31,9.31,0,1,0,16.371,2.519,1.458,1.458,0,1,0-2.767.922,6.4,6.4,0,1,1-3.731-3.928,1.458,1.458,0,0,0,1.067-2.715,9.307,9.307,0,0,0-8.878,1.139l-7.809-7.809a30.8,30.8,0,0,0,8.024-19.34ZM92.2,45.342a4.434,4.434,0,1,1-4.434,4.434A4.439,4.439,0,0,1,92.2,45.342Zm-6.285-38.1a6.4,6.4,0,1,1-6.4,6.4A6.405,6.405,0,0,1,85.917,7.238Zm-40.575.113a4.434,4.434,0,1,1,4.434,4.434,4.439,4.439,0,0,1-4.434-4.434ZM7.351,54.211a4.434,4.434,0,1,1,4.434-4.434A4.439,4.439,0,0,1,7.351,54.211ZM49.777,21.773a28,28,0,1,1-28,28,28.036,28.036,0,0,1,28-28ZM13.636,92.315a6.4,6.4,0,1,1,6.4-6.4A6.405,6.405,0,0,1,13.636,92.315ZM54.211,92.2a4.434,4.434,0,1,1-4.434-4.434A4.439,4.439,0,0,1,54.211,92.2Z" fill="#4949ff"/><path d="M165.11,186.54h13.1a1.458,1.458,0,0,0,0-2.917h-3.389v-2.469a1.458,1.458,0,1,0-2.917,0v2.469h-5.332v-7.183a6.405,6.405,0,0,1,6.4-6.4h17.286a6.405,6.405,0,0,1,6.4,6.4v7.183h-5.332v-2.469a1.458,1.458,0,0,0-2.917,0v2.469h-3.388a1.458,1.458,0,0,0,0,2.917h13.1a1.458,1.458,0,0,0,1.458-1.458v-8.641a9.325,9.325,0,0,0-9.313-9.316h-1.083a11.279,11.279,0,1,0-15.12,0h-1.083a9.325,9.325,0,0,0-9.313,9.316v8.641a1.458,1.458,0,0,0,1.458,1.458Zm8.136-27.777a8.362,8.362,0,1,1,8.362,8.362,8.372,8.372,0,0,1-8.362-8.362Z" transform="translate(-131.832 -118.807)" fill="#4949ff"/></svg>