<svg xmlns="http://www.w3.org/2000/svg" width="93.483" height="93.484" viewBox="0 0 93.483 93.484"><g transform="translate(0.001)"><g transform="translate(-0.001)"><path d="M91.656,0H9.855A1.826,1.826,0,0,0,8.029,1.826V31.141L.725,43.314a5.144,5.144,0,0,0,.4,5.846,5.086,5.086,0,0,0,3.992,1.916h.114a5.094,5.094,0,0,0,2.8-.9v.719a1.826,1.826,0,0,0,1.826,1.826h5.781V87.276a6.2,6.2,0,0,0,10.59,4.393,6.2,6.2,0,0,0,10.59-4.393V52.719H59.222a1.826,1.826,0,0,0,0-3.652H36.816v-2.3c0-.014,0-.026,0-.039V35.737L39.458,38.4a7.117,7.117,0,0,0,9.721.332l4.31-3.779,1.019-.983a4.735,4.735,0,0,0,.83-3.852,5.243,5.243,0,0,0-8.291-3.444l-1.884,1.384-4.716-4.728a15.488,15.488,0,0,0-7.3-4.13A9.055,9.055,0,0,0,35.321,13.3v-.968a9.111,9.111,0,0,0-6.39-8.684h60.9V49.067H74.725a1.826,1.826,0,0,0,0,3.652H91.656a1.826,1.826,0,0,0,1.826-1.826V1.826A1.826,1.826,0,0,0,91.656,0ZM11.681,3.652h11.84a9.112,9.112,0,0,0-6.39,8.684v.969a9.059,9.059,0,0,0,2.341,6.084,14.688,14.688,0,0,0-7.792,5.719Zm3.956,43.1c0,.006,0,.011,0,.018v2.3H11.681V45.678l3.956-5.385ZM33.164,87.276a2.556,2.556,0,1,1-5.112,0v-28.3a1.826,1.826,0,1,0-3.652,0v28.3a2.556,2.556,0,1,1-5.112,0V48.591H33.164Zm4.7-61.371,5.824,5.839a1.826,1.826,0,0,0,2.374.182l3.15-2.314A1.594,1.594,0,0,1,51.2,32.095l-4.432,3.887a3.458,3.458,0,0,1-4.724-.161l-5.764-5.8a1.826,1.826,0,0,0-3.12,1.287V44.939H19.289V34.724a1.826,1.826,0,0,0-3.3-1.081L6.308,46.823a1.464,1.464,0,0,1-1.155.6H5.12a1.461,1.461,0,0,1-1.148-.55,1.478,1.478,0,0,1-.115-1.681L14.345,27.712A11,11,0,0,1,23.731,22.4H24.4v5.418a1.826,1.826,0,0,0,3.652,0V22.4h1.357A11.856,11.856,0,0,1,37.861,25.905ZM31.669,12.336v.969a5.449,5.449,0,0,1-5.338,5.441H26.12a5.448,5.448,0,0,1-5.337-5.441v-.969a5.443,5.443,0,1,1,10.886,0Z" transform="translate(0.001)" fill="#fff"/></g><path d="M269.734,371.006a6.852,6.852,0,0,0,1.782-4.614v-1.668a6.885,6.885,0,0,0-6.877-6.877h-.077a6.884,6.884,0,0,0-6.877,6.877v1.668a6.849,6.849,0,0,0,1.782,4.614,10.059,10.059,0,0,0-3.093,2.856,10.064,10.064,0,0,0-3.092-2.856,6.853,6.853,0,0,0,1.782-4.614v-1.668a6.884,6.884,0,0,0-6.877-6.877h-.077a6.884,6.884,0,0,0-6.877,6.877v1.668a6.853,6.853,0,0,0,1.782,4.614,10.057,10.057,0,0,0-3.092,2.856,10.068,10.068,0,0,0-3.093-2.856,6.849,6.849,0,0,0,1.782-4.614v-1.668a6.885,6.885,0,0,0-6.878-6.877h-.076a6.885,6.885,0,0,0-6.878,6.877v1.668a6.85,6.85,0,0,0,1.782,4.614,9.993,9.993,0,0,0-4.919,8.6v4.56a1.826,1.826,0,0,0,1.826,1.826h49.36a1.826,1.826,0,0,0,1.826-1.826v-4.56A9.993,9.993,0,0,0,269.734,371.006Zm-8.4-6.281a3.229,3.229,0,0,1,3.225-3.226h.077a3.229,3.229,0,0,1,3.225,3.226v1.667a3.229,3.229,0,0,1-3.225,3.225h-.077a3.229,3.229,0,0,1-3.225-3.225Zm-16.453,0a3.229,3.229,0,0,1,3.225-3.226h.077a3.229,3.229,0,0,1,3.225,3.226v1.667a3.229,3.229,0,0,1-3.225,3.225h-.077a3.229,3.229,0,0,1-3.225-3.225Zm-16.454,0a3.229,3.229,0,0,1,3.225-3.226h.077a3.229,3.229,0,0,1,3.225,3.226v1.667a3.229,3.229,0,0,1-3.225,3.225h-.077a3.229,3.229,0,0,1-3.225-3.225Zm-3.137,14.883a6.345,6.345,0,0,1,6.338-6.338h.125a6.346,6.346,0,0,1,6.339,6.338v2.734h-12.8Zm16.453,0a6.345,6.345,0,0,1,6.339-6.338h.124a6.345,6.345,0,0,1,6.339,6.338v2.734h-12.8ZM271,382.342H258.2v-2.734a6.346,6.346,0,0,1,6.339-6.338h.124A6.345,6.345,0,0,1,271,379.609Z" transform="translate(-181.173 -292.51)" fill="#fff"/><path d="M359.715,271.855a1.826,1.826,0,1,0-1.291.535A1.844,1.844,0,0,0,359.715,271.855Z" transform="translate(-291.489 -219.67)" fill="#fff"/></g></svg>