<svg xmlns="http://www.w3.org/2000/svg" xmlns:xlink="http://www.w3.org/1999/xlink" width="198.484" height="198.484" viewBox="0 0 198.484 198.484"><defs><clipPath id="a"><path d="M0,78.366H198.484V-120.118H0Z" transform="translate(0 120.118)" fill="none"/></clipPath><clipPath id="b"><rect width="321.77" height="321.769" fill="none" stroke="#853eb7" stroke-width="1"/></clipPath></defs><g transform="translate(0 120.118)"><g transform="translate(0 -120.118)" clip-path="url(#a)"><g transform="translate(-68.654 -68.653)" opacity="0.5"><g clip-path="url(#b)"><g transform="translate(74.242 74.957)"><path d="M24.275,0-37.208,61.483" transform="translate(37.208)" fill="none" stroke="#853eb7" stroke-miterlimit="10" stroke-width="1"/></g><g transform="translate(200.066 199.35)"><path d="M0,24.275,61.483-37.208" transform="translate(0 37.208)" fill="none" stroke="#853eb7" stroke-miterlimit="10" stroke-width="1"/></g><g transform="translate(69.237 69.238)"><path d="M42.622,0-65.33,107.952" transform="translate(65.33)" fill="none" stroke="#853eb7" stroke-miterlimit="10" stroke-width="1"/></g><g transform="translate(158.602 158.601)"><path d="M0,42.622,107.952-65.33" transform="translate(0 65.33)" fill="none" stroke="#853eb7" stroke-miterlimit="10" stroke-width="1"/></g><g transform="translate(76.387 76.387)"><path d="M51.09,0l-129.4,129.4" transform="translate(78.309)" fill="none" stroke="#853eb7" stroke-miterlimit="10" stroke-width="1"/></g><g transform="translate(130.005 130.005)"><path d="M0,51.09l129.4-129.4" transform="translate(0 78.309)" fill="none" stroke="#853eb7" stroke-miterlimit="10" stroke-width="1"/></g><g transform="translate(82.464 82.463)"><path d="M53.347,0-81.77,135.117" transform="translate(81.77)" fill="none" stroke="#853eb7" stroke-miterlimit="10" stroke-width="1"/></g><g transform="translate(118.209 118.209)"><path d="M0,53.347,135.117-81.77" transform="translate(0 81.77)" fill="none" stroke="#853eb7" stroke-miterlimit="10" stroke-width="1"/></g><g transform="translate(89.256 89.255)"><path d="M55.041,0-84.366,139.407" transform="translate(84.366)" fill="none" stroke="#853eb7" stroke-miterlimit="10" stroke-width="1"/></g><g transform="translate(107.128 107.128)"><path d="M0,55.041,139.407-84.366" transform="translate(0 84.366)" fill="none" stroke="#853eb7" stroke-miterlimit="10" stroke-width="1"/></g><g transform="translate(98.192 98.191)"><path d="M55.041,0-84.366,139.407" transform="translate(84.366)" fill="none" stroke="#853eb7" stroke-miterlimit="10" stroke-width="1"/></g><g transform="translate(69.595 69.595)"><path d="M35.283,0-54.081,89.364" transform="translate(54.081)" fill="none" stroke="#853eb7" stroke-miterlimit="10" stroke-width="1"/></g><g transform="translate(176.832 176.831)"><path d="M0,35.283,89.364-54.081" transform="translate(0 54.081)" fill="none" stroke="#853eb7" stroke-miterlimit="10" stroke-width="1"/></g><g transform="translate(71.741 71.74)"><path d="M47.7,0-73.117,120.819" transform="translate(73.117)" fill="none" stroke="#853eb7" stroke-miterlimit="10" stroke-width="1"/></g><g transform="translate(143.231 143.231)"><path d="M0,47.7,120.819-73.117" transform="translate(0 73.117)" fill="none" stroke="#853eb7" stroke-miterlimit="10" stroke-width="1"/></g></g></g></g></g></svg>