<svg xmlns="http://www.w3.org/2000/svg" width="93.673" height="93.484" viewBox="0 0 93.673 93.484"><g transform="translate(0 -0.518)"><path d="M172.271,21.231a1.374,1.374,0,0,0,1.374-1.374V8.319a2.673,2.673,0,1,1,5.345,0V32.146a1.374,1.374,0,1,0,2.747,0V5.938a2.673,2.673,0,0,1,5.345,0V32.146a1.374,1.374,0,1,0,2.747,0V11.615a2.673,2.673,0,1,1,5.345,0V32.146a1.374,1.374,0,1,0,2.747,0v-17.6a2.673,2.673,0,1,1,5.345,0v4.148a1.374,1.374,0,0,0,2.747,0V14.545a5.415,5.415,0,0,0-8.343-4.56A5.414,5.414,0,0,0,189.83,6.9V5.938A5.419,5.419,0,0,0,179.4,3.866a5.416,5.416,0,0,0-8.5,4.453V19.857a1.374,1.374,0,0,0,1.373,1.374Z" transform="translate(-139.631)" fill="#f1c08b"/><path d="M323.262,125.721a1.374,1.374,0,0,0-2.747,0v30.257a9.049,9.049,0,0,1-4.058,7.56l-1.071.71a2.2,2.2,0,0,0-.986,1.835V193.8a1.374,1.374,0,0,0,2.747,0V166.376l.827-.548a11.79,11.79,0,0,0,5.287-9.849Z" transform="translate(-256.879 -101.175)" fill="#f1c08b"/><path d="M177.811,148.872a6.823,6.823,0,0,0-9.2-1.036l-.662.49-.662-.49a6.83,6.83,0,0,0-7.977-.076v-5.826a5.52,5.52,0,0,0-4.136-5.336v-4.515a1.374,1.374,0,1,0-2.747,0V136.6a5.52,5.52,0,0,0-4.136,5.336V159.09a14.486,14.486,0,0,0,6.017,11.736l1.655,1.19V199a1.374,1.374,0,0,0,2.747,0v-27.69a1.373,1.373,0,0,0-.572-1.115l-2.227-1.6a11.733,11.733,0,0,1-4.874-9.505V141.935a2.762,2.762,0,1,1,5.525,0v10.184a6.818,6.818,0,0,0,1.866,5.976l6.35,6.377a4.475,4.475,0,0,0,6.342,0l6.35-6.377a6.83,6.83,0,0,0,.34-9.224Zm-2.287,7.285-6.35,6.377a1.728,1.728,0,0,1-2.449,0l-6.35-6.377a4.045,4.045,0,0,1,2.876-6.9,4.027,4.027,0,0,1,2.4.789l1.26.932a1.735,1.735,0,0,0,2.073,0l1.259-.932a4.049,4.049,0,0,1,5.278,6.112Z" transform="translate(-121.16 -106.373)" fill="#f1c08b"/><path d="M350.257,421.631l-1.874-1.347a9.662,9.662,0,0,1-1.553-1.4,1.373,1.373,0,1,0-2.047,1.832,12.4,12.4,0,0,0,2,1.8l1.3.935v10.624a1.374,1.374,0,0,0,2.747,0V422.746a1.374,1.374,0,0,0-.572-1.115Z" transform="translate(-281.417 -341.448)" fill="#f1c08b"/><path d="M397.616,151.817a4.748,4.748,0,0,0-2.343.616,4.774,4.774,0,0,0-6.5-2.628v-.454a4.777,4.777,0,0,0-9.107-2.02,1.373,1.373,0,0,0-1.268,2.4,2.015,2.015,0,0,1,.818,1.624V171.4a1.374,1.374,0,1,0,2.747,0V149.352a2.031,2.031,0,0,1,4.062,0V171.4a1.374,1.374,0,1,0,2.747,0V154.129a2.031,2.031,0,1,1,4.062,0V171.4a1.374,1.374,0,1,0,2.747,0V156.6a2.031,2.031,0,1,1,4.062,0v33.792a9.182,9.182,0,0,1-3.148,6.922l-.293.255a1.373,1.373,0,0,0-.471,1.035v11.729a1.374,1.374,0,0,0,2.747,0V199.221a11.928,11.928,0,0,0,3.912-8.834V156.6a4.783,4.783,0,0,0-4.778-4.778Z" transform="translate(-308.72 -117.7)" fill="#f1c08b"/><path d="M376.977,327.96l-.428.317-.428-.317a5.937,5.937,0,0,0-7.738,8.961l5.343,5.366a3.983,3.983,0,0,0,5.645,0l5.343-5.366a5.937,5.937,0,0,0-7.738-8.961Zm5.792,7.023-5.343,5.366a1.236,1.236,0,0,1-1.752,0h0l-5.343-5.366a3.186,3.186,0,0,1,2.265-5.436,3.171,3.171,0,0,1,1.892.622l1.059.784a1.677,1.677,0,0,0,2,0l1.059-.784a3.19,3.19,0,0,1,4.158,4.814Z" transform="translate(-299.581 -266.589)" fill="#f1c08b"/><path d="M8.631,377.814l-1.874-1.347a9.655,9.655,0,0,1-4.01-7.821V366.17a1.374,1.374,0,1,0-2.747,0v2.476A12.409,12.409,0,0,0,5.154,378.7l1.3.936V390.26a1.374,1.374,0,0,0,2.747,0v-11.33A1.374,1.374,0,0,0,8.631,377.814Z" transform="translate(0 -297.631)" fill="#f1c08b"/><path d="M150.389,360.517a1.373,1.373,0,0,0-1.373,1.374V371.7a9.142,9.142,0,0,1-1.74,2.039l-.293.255a1.374,1.374,0,0,0-.471,1.036v11.729a1.374,1.374,0,1,0,2.747,0V375.656a11.914,11.914,0,0,0,2.321-2.887,1.372,1.372,0,0,0,.183-.685V361.891a1.373,1.373,0,0,0-1.373-1.374Z" transform="translate(-119.706 -294.135)" fill="#f1c08b"/><path d="M17.187,179.071l-.428.317-.428-.317a5.964,5.964,0,0,0-6.624-.29v-4.5a4.862,4.862,0,0,0-3.48-4.655V151.355a2.031,2.031,0,1,1,4.062,0V171.4a1.374,1.374,0,1,0,2.747,0V149.352a2.031,2.031,0,1,1,4.062,0V171.4a1.374,1.374,0,1,0,2.747,0V154.129a2.033,2.033,0,0,1,2.031-2.031,2.011,2.011,0,0,1,.832.181,1.374,1.374,0,0,0,1.13-2.5,4.76,4.76,0,0,0-3.994.03v-.454a4.778,4.778,0,0,0-9.086-2.066,4.775,4.775,0,0,0-7.279,4.069v18.269A4.862,4.862,0,0,0,0,174.28v6.105a1.374,1.374,0,0,0,2.747,0V174.28a2.107,2.107,0,1,1,4.213,0v8.554a5.956,5.956,0,0,0,1.633,5.2l5.343,5.366a3.983,3.983,0,0,0,5.645,0l5.343-5.366a5.937,5.937,0,0,0-7.738-8.961Zm5.791,7.023-5.343,5.366a1.236,1.236,0,0,1-1.752,0h0l-5.343-5.366a3.186,3.186,0,0,1,2.266-5.436,3.171,3.171,0,0,1,1.892.622l1.059.784a1.677,1.677,0,0,0,2,0l1.059-.784a3.19,3.19,0,0,1,4.157,4.814Z" transform="translate(0 -117.7)" fill="#f1c08b"/></g></svg>