<svg xmlns="http://www.w3.org/2000/svg" xmlns:xlink="http://www.w3.org/1999/xlink" width="144.646" height="144.646" viewBox="0 0 144.646 144.646"><defs><clipPath id="a"><path d="M0,24.528H144.646V-120.118H0Z" transform="translate(0 120.118)" fill="none"/></clipPath><clipPath id="b"><rect width="234.491" height="234.491" fill="none" stroke="#4949ff" stroke-width="1"/></clipPath></defs><g transform="translate(0 120.118)"><g transform="translate(0 -120.118)" clip-path="url(#a)"><g transform="translate(-50.032 -50.031)" opacity="0.5"><g clip-path="url(#b)"><g transform="translate(54.104 54.625)"><path d="M7.6,0-37.208,44.806" transform="translate(37.208)" fill="none" stroke="#4949ff" stroke-miterlimit="10" stroke-width="1"/></g><g transform="translate(145.799 145.277)"><path d="M0,7.6,44.806-37.208" transform="translate(0 37.208)" fill="none" stroke="#4949ff" stroke-miterlimit="10" stroke-width="1"/></g><g transform="translate(50.457 50.457)"><path d="M13.34,0-65.33,78.67" transform="translate(65.33)" fill="none" stroke="#4949ff" stroke-miterlimit="10" stroke-width="1"/></g><g transform="translate(115.582 115.581)"><path d="M0,13.34,78.67-65.33" transform="translate(0 65.33)" fill="none" stroke="#4949ff" stroke-miterlimit="10" stroke-width="1"/></g><g transform="translate(55.667 55.667)"><path d="M15.991,0l-94.3,94.3" transform="translate(78.309)" fill="none" stroke="#4949ff" stroke-miterlimit="10" stroke-width="1"/></g><g transform="translate(94.742 94.742)"><path d="M0,15.991l94.3-94.3" transform="translate(0 78.309)" fill="none" stroke="#4949ff" stroke-miterlimit="10" stroke-width="1"/></g><g transform="translate(60.096 60.095)"><path d="M16.7,0-81.77,98.467" transform="translate(81.77)" fill="none" stroke="#4949ff" stroke-miterlimit="10" stroke-width="1"/></g><g transform="translate(86.145 86.145)"><path d="M0,16.7,98.467-81.77" transform="translate(0 81.77)" fill="none" stroke="#4949ff" stroke-miterlimit="10" stroke-width="1"/></g><g transform="translate(65.045 65.045)"><path d="M17.228,0-84.366,101.594" transform="translate(84.366)" fill="none" stroke="#4949ff" stroke-miterlimit="10" stroke-width="1"/></g><g transform="translate(78.07 78.07)"><path d="M0,17.228,101.594-84.366" transform="translate(0 84.366)" fill="none" stroke="#4949ff" stroke-miterlimit="10" stroke-width="1"/></g><g transform="translate(71.558 71.557)"><path d="M17.228,0-84.366,101.594" transform="translate(84.366)" fill="none" stroke="#4949ff" stroke-miterlimit="10" stroke-width="1"/></g><g transform="translate(50.718 50.718)"><path d="M11.043,0-54.081,65.124" transform="translate(54.081)" fill="none" stroke="#4949ff" stroke-miterlimit="10" stroke-width="1"/></g><g transform="translate(128.867 128.866)"><path d="M0,11.043,65.124-54.081" transform="translate(0 54.081)" fill="none" stroke="#4949ff" stroke-miterlimit="10" stroke-width="1"/></g><g transform="translate(52.281 52.281)"><path d="M14.93,0-73.117,88.047" transform="translate(73.117)" fill="none" stroke="#4949ff" stroke-miterlimit="10" stroke-width="1"/></g><g transform="translate(104.38 104.38)"><path d="M0,14.93,88.047-73.117" transform="translate(0 73.117)" fill="none" stroke="#4949ff" stroke-miterlimit="10" stroke-width="1"/></g></g></g></g></g></svg>