<svg id="Capa_1" data-name="Capa 1" xmlns="http://www.w3.org/2000/svg" viewBox="0 0 460.83 455.62"><defs><style>.cls-1{fill:#d6e191;}</style></defs><title>butterfly</title><path class="cls-1" d="M494,244.48,430,200a92.67,92.67,0,0,0-101-2.95A33.93,33.93,0,0,0,320.51,177a86.44,86.44,0,0,1,116.08-16.31,7.68,7.68,0,0,0,8.76-12.62,101.84,101.84,0,0,0-113.11-1.9A101.84,101.84,0,0,0,290.9,40.86a7.68,7.68,0,1,0-8.76,12.62,86.45,86.45,0,0,1,25.32,114.46,33.83,33.83,0,0,0-21.77-.89,92.69,92.69,0,0,0-38.09-93.6L183.55,29a7.68,7.68,0,0,0-10.69,1.93l-62.41,89.92a92.72,92.72,0,0,0,3.22,109.93,73.73,73.73,0,1,0,47.51,126.92,33.73,33.73,0,0,0,32.71,22.71,73.74,73.74,0,1,0,135.52.11,92.58,92.58,0,0,0,76.78-9.46A7.68,7.68,0,0,0,398.11,358a77.21,77.21,0,0,1-84.64-2.25l-57.74-40.07,58-83.61a77.28,77.28,0,0,1,107.43-19.4l57.74,40.07-38.32,55.22a7.68,7.68,0,0,0,12.62,8.76l42.7-61.53A7.69,7.69,0,0,0,494,244.48ZM295.23,231.81l-18.1,26.08-30.29-21,18.1-26.08Zm-57.15,17.67,30.29,21-18.1,26.08-30.29-21Zm-26.86,38.71,30.29,21L223.4,335.29l-30.28-21ZM305.76,184.3A18.47,18.47,0,0,1,310.4,210L304,219.19l-30.29-21,6.41-9.22A18.46,18.46,0,0,1,305.76,184.3ZM142.47,237a77.28,77.28,0,0,1-19.4-107.44L181.1,46l57.74,40.08a77.28,77.28,0,0,1,19.4,107.43l-58,83.61Zm15.69,100.65a58.38,58.38,0,1,1-14.67-81.24l47.95,33.28Zm24.43,24.08A18.45,18.45,0,0,1,178,336.12l6.41-9.23,30.28,21-6.4,9.23A18.44,18.44,0,0,1,182.59,361.77Zm112.34-.21a58.38,58.38,0,1,1-81.24,14.67l33.28-48Z" transform="translate(-36.48 -27.62)"/><path class="cls-1" d="M431.6,334.4a7.8,7.8,0,0,0-5.75-1.25,7.67,7.67,0,1,0,5.75,1.25Z" transform="translate(-36.48 -27.62)"/></svg>