<svg xmlns="http://www.w3.org/2000/svg" xmlns:xlink="http://www.w3.org/1999/xlink" width="112.714" height="112.713" viewBox="0 0 112.714 112.713"><defs><clipPath id="a"><path d="M0-7.4H112.713V-120.118H0Z" transform="translate(0 120.118)" fill="none"/></clipPath><clipPath id="b"><rect width="182.724" height="182.724" fill="none" stroke="#4949ff" stroke-width="1"/></clipPath></defs><g transform="translate(0 120.118)"><g transform="translate(0 -120.118)" clip-path="url(#a)"><g transform="translate(-38.986 -38.986)" opacity="0.5"><g clip-path="url(#b)"><g transform="translate(42.16 42.566)"><path d="M-2.294,0-37.208,34.914" transform="translate(37.208)" fill="none" stroke="#4949ff" stroke-miterlimit="10" stroke-width="1"/></g><g transform="translate(113.612 113.205)"><path d="M0-2.294,34.914-37.208" transform="translate(0 37.208)" fill="none" stroke="#4949ff" stroke-miterlimit="10" stroke-width="1"/></g><g transform="translate(39.318 39.318)"><path d="M-4.027,0l-61.3,61.3" transform="translate(65.33)" fill="none" stroke="#4949ff" stroke-miterlimit="10" stroke-width="1"/></g><g transform="translate(90.065 90.065)"><path d="M0-4.027l61.3-61.3" transform="translate(0 65.33)" fill="none" stroke="#4949ff" stroke-miterlimit="10" stroke-width="1"/></g><g transform="translate(43.378 43.378)"><path d="M-4.827,0-78.309,73.482" transform="translate(78.309)" fill="none" stroke="#4949ff" stroke-miterlimit="10" stroke-width="1"/></g><g transform="translate(73.826 73.826)"><path d="M0-4.827,73.482-78.309" transform="translate(0 78.309)" fill="none" stroke="#4949ff" stroke-miterlimit="10" stroke-width="1"/></g><g transform="translate(46.829 46.829)"><path d="M-5.041,0-81.77,76.729" transform="translate(81.77)" fill="none" stroke="#4949ff" stroke-miterlimit="10" stroke-width="1"/></g><g transform="translate(67.128 67.128)"><path d="M0-5.041,76.729-81.77" transform="translate(0 81.77)" fill="none" stroke="#4949ff" stroke-miterlimit="10" stroke-width="1"/></g><g transform="translate(50.686 50.685)"><path d="M-5.2,0-84.366,79.165" transform="translate(84.366)" fill="none" stroke="#4949ff" stroke-miterlimit="10" stroke-width="1"/></g><g transform="translate(60.835 60.835)"><path d="M0-5.2,79.165-84.366" transform="translate(0 84.366)" fill="none" stroke="#4949ff" stroke-miterlimit="10" stroke-width="1"/></g><g transform="translate(55.76 55.76)"><path d="M-5.2,0-84.366,79.165" transform="translate(84.366)" fill="none" stroke="#4949ff" stroke-miterlimit="10" stroke-width="1"/></g><g transform="translate(39.521 39.521)"><path d="M-3.334,0-54.081,50.747" transform="translate(54.081)" fill="none" stroke="#4949ff" stroke-miterlimit="10" stroke-width="1"/></g><g transform="translate(100.418 100.417)"><path d="M0-3.334,50.747-54.081" transform="translate(0 54.081)" fill="none" stroke="#4949ff" stroke-miterlimit="10" stroke-width="1"/></g><g transform="translate(40.739 40.739)"><path d="M-4.507,0l-68.61,68.61" transform="translate(73.117)" fill="none" stroke="#4949ff" stroke-miterlimit="10" stroke-width="1"/></g><g transform="translate(81.337 81.337)"><path d="M0-4.507l68.61-68.61" transform="translate(0 73.117)" fill="none" stroke="#4949ff" stroke-miterlimit="10" stroke-width="1"/></g></g></g></g></g></svg>