<svg xmlns="http://www.w3.org/2000/svg" width="109.928" height="109.928" viewBox="0 0 109.928 109.928"><g transform="translate(0 -0.001)"><g transform="translate(35.299 38.924)"><path d="M167.928,181.758a2.147,2.147,0,0,0-3.017.341l-.036.045a2.147,2.147,0,1,0,3.358,2.677l.036-.045A2.147,2.147,0,0,0,167.928,181.758Z" transform="translate(-164.407 -181.29)" fill="#4ce5c6"/></g><g transform="translate(40.938 30.49)"><path d="M222.008,149.175a24.484,24.484,0,0,0-30.329-3.423,2.147,2.147,0,1,0,2.287,3.635,20.069,20.069,0,0,1,25.005,2.825,2.147,2.147,0,1,0,3.036-3.036Z" transform="translate(-190.675 -142.008)" fill="#4ce5c6"/></g><g transform="translate(20.324 21.319)"><path d="M183.6,109.64l-9.716-9.716a2.148,2.148,0,0,0-3.037,0l-41.667,41.667L108.042,120.45a2.147,2.147,0,0,0-3.037,0l-9.716,9.716a2.147,2.147,0,0,0,0,3.036l32.375,32.375a2.147,2.147,0,0,0,3.036,0l19.76-19.76a2.147,2.147,0,1,0-3.037-3.037l-18.242,18.242L99.844,131.685l6.68-6.68,21.141,21.141a2.148,2.148,0,0,0,3.037,0l41.667-41.667,6.68,6.68-20.459,20.459a2.147,2.147,0,1,0,3.037,3.037L183.6,112.677A2.147,2.147,0,0,0,183.6,109.64Z" transform="translate(-94.66 -99.295)" fill="#4ce5c6"/></g><g transform="translate(78.349 58.286)"><path d="M368.584,272.1a2.151,2.151,0,1,0,.627,1.518A2.168,2.168,0,0,0,368.584,272.1Z" transform="translate(-364.917 -271.472)" fill="#4ce5c6"/></g><g transform="translate(0 0.001)"><g transform="translate(0)"><path d="M109.22,67.142l-2.478-2.237a13.414,13.414,0,0,1-4.418-9.886,2.19,2.19,0,0,0-2.083-2.2,2.147,2.147,0,0,0-2.211,2.146,17.713,17.713,0,0,0,5.834,13.127l1.353,1.221-4.579,11.039-1.825-.093A17.676,17.676,0,0,0,80.259,98.815l.093,1.825-11.039,4.579-1.221-1.353a17.686,17.686,0,0,0-26.255,0l-1.221,1.353-11.039-4.579.093-1.825A17.676,17.676,0,0,0,11.114,80.26l-1.825.093L4.711,69.314l1.356-1.224A17.709,17.709,0,0,0,11.9,54.96,17.7,17.7,0,0,0,6.067,41.84L4.711,40.616,9.29,29.577l1.825.093A17.676,17.676,0,0,0,29.669,11.115L29.576,9.29,40.615,4.712l1.224,1.356A17.71,17.71,0,0,0,54.968,11.9a17.7,17.7,0,0,0,13.12-5.831l1.224-1.356L80.351,9.29l-.093,1.825a17.711,17.711,0,0,0,3.55,11.557,2.147,2.147,0,1,0,3.42-2.6,13.407,13.407,0,0,1-2.681-8.741L84.717,8A2.147,2.147,0,0,0,83.4,5.9L69.558.165a2.146,2.146,0,0,0-2.416.544L64.9,3.19A13.409,13.409,0,0,1,54.96,7.6,13.4,13.4,0,0,1,45.027,3.19L42.787.709A2.147,2.147,0,0,0,40.37.165L26.532,5.9A2.147,2.147,0,0,0,25.21,8l.17,3.337A13.382,13.382,0,0,1,11.333,25.382L8,25.211A2.146,2.146,0,0,0,5.9,26.533L.164,40.371a2.148,2.148,0,0,0,.544,2.416l2.481,2.24A13.409,13.409,0,0,1,7.6,54.97,13.4,13.4,0,0,1,3.19,64.9L.708,67.142a2.147,2.147,0,0,0-.544,2.416L5.9,83.4A2.148,2.148,0,0,0,8,84.718l3.337-.17A13.382,13.382,0,0,1,25.381,98.6l-.17,3.337a2.147,2.147,0,0,0,1.322,2.093l13.838,5.74a2.148,2.148,0,0,0,2.416-.544l2.237-2.478a13.392,13.392,0,0,1,19.88,0l2.237,2.478a2.146,2.146,0,0,0,2.416.544l13.839-5.74a2.147,2.147,0,0,0,1.321-2.093l-.17-3.337A13.382,13.382,0,0,1,98.595,84.548l3.337.17a2.153,2.153,0,0,0,2.093-1.322l5.74-13.838A2.147,2.147,0,0,0,109.22,67.142Z" transform="translate(0 -0.001)" fill="#4ce5c6"/></g></g></g></svg>