<svg xmlns="http://www.w3.org/2000/svg" width="78.221" height="113.754" viewBox="0 0 78.221 113.754"><g transform="translate(-89)"><path d="M159.79,15.356a1.814,1.814,0,0,0-2.45-.371,1.611,1.611,0,0,0-.39,2.327,32.434,32.434,0,0,1,6.762,19.827,34.475,34.475,0,0,1-6.2,19.56c-6,8.735-10,15.157-10.932,24.472a2.646,2.646,0,0,1-1.981,2.277,1.68,1.68,0,0,0-.208.048,2.919,2.919,0,0,1-.535.05H112.37a2.933,2.933,0,0,1-.536-.05,1.818,1.818,0,0,0-.208-.048,2.645,2.645,0,0,1-1.981-2.277c-.927-9.315-4.93-15.737-10.931-24.472a34.466,34.466,0,0,1-6.2-19.56c0-18.641,15.971-33.807,35.6-33.807a36.523,36.523,0,0,1,24.306,9.1,1.821,1.821,0,0,0,2.48-.08A1.608,1.608,0,0,0,154.813,10a40.122,40.122,0,0,0-26.7-10C106.545,0,89,16.66,89,37.14a37.671,37.671,0,0,0,6.775,21.381c5.716,8.32,9.526,14.412,10.377,22.965a5.942,5.942,0,0,0,3.415,4.768v15.639a4.872,4.872,0,0,0,3.3,4.535,7.875,7.875,0,0,0,8.034,7.326h14.413a7.875,7.875,0,0,0,8.034-7.326,4.871,4.871,0,0,0,3.3-4.535V86.254a5.939,5.939,0,0,0,3.415-4.768c.851-8.553,4.661-14.645,10.377-22.964a37.676,37.676,0,0,0,6.775-21.382A35.624,35.624,0,0,0,159.79,15.356Zm-35.719,78h19.074v3.04H113.076v-3.04h3.976a1.669,1.669,0,1,0,0-3.333h-3.976V86.879h30.068V90.02H124.072a1.669,1.669,0,1,0,0,3.333Zm17.564,10.053h-.054l-.074,0H114.714l-.074,0h-.056a1.554,1.554,0,0,1-1.509-1.512V99.726h30.069v2.167A1.554,1.554,0,0,1,141.635,103.405Zm-6.318,7.016H120.9a4.47,4.47,0,0,1-4.485-3.681H139.8A4.47,4.47,0,0,1,135.317,110.421Z" transform="translate(0 0)" fill="#c388ff"/><path d="M192.545,109.415a.516.516,0,0,1,.5-.371h1.412a4.053,4.053,0,0,0,4.011-4.085v-2.632a4.053,4.053,0,0,0-4.011-4.085h-1.51a.517.517,0,0,1-.5-.362,20.589,20.589,0,0,0-1.585-3.852.538.538,0,0,1,.093-.624l1.083-1.1a4.139,4.139,0,0,0,0-5.777l-1.828-1.862a3.961,3.961,0,0,0-5.672,0l-1.082,1.1a.512.512,0,0,1-.613.094,19.806,19.806,0,0,0-3.781-1.615.525.525,0,0,1-.355-.505V82.2a4.053,4.053,0,0,0-4.01-4.086h-2.584a4.053,4.053,0,0,0-4.01,4.086v1.438a.524.524,0,0,1-.364.508,19.752,19.752,0,0,0-3.9,1.6.511.511,0,0,1-.6-.1l-.965-.984a3.958,3.958,0,0,0-5.672,0l-1.828,1.862a4.139,4.139,0,0,0,0,5.777l.867.882a.533.533,0,0,1,.092.626,20.6,20.6,0,0,0-1.7,4.067.526.526,0,0,1-.509.365h-1.162a4.053,4.053,0,0,0-4.011,4.085v2.632a4.053,4.053,0,0,0,4.011,4.085h1.072a.515.515,0,0,1,.5.367,20.565,20.565,0,0,0,1.689,4.2.532.532,0,0,1-.1.615l-.746.76a4.139,4.139,0,0,0,0,5.777l1.827,1.861a3.959,3.959,0,0,0,5.672,0l.747-.76a.5.5,0,0,1,.6-.1,19.8,19.8,0,0,0,4.123,1.719.523.523,0,0,1,.36.51v1.092a4.052,4.052,0,0,0,4.01,4.085H174.7a4.053,4.053,0,0,0,4.01-4.085V123.9a.535.535,0,0,1,.359-.518,19.806,19.806,0,0,0,3.992-1.736.512.512,0,0,1,.615.094l.866.883a3.959,3.959,0,0,0,5.672,0l1.828-1.861a4.139,4.139,0,0,0,0-5.777l-.965-.984a.533.533,0,0,1-.1-.613A20.51,20.51,0,0,0,192.545,109.415Zm-3.354-.971a17.015,17.015,0,0,1-1.295,3.279,4.107,4.107,0,0,0,.713,4.789l.965.984a.541.541,0,0,1,0,.755l-1.828,1.861a.517.517,0,0,1-.741,0l-.867-.882a3.958,3.958,0,0,0-4.788-.68,16.344,16.344,0,0,1-3.3,1.433,4.1,4.1,0,0,0-2.833,3.917v1.184a.53.53,0,0,1-.524.534h-2.584a.529.529,0,0,1-.524-.534v-1.092a4.08,4.08,0,0,0-2.894-3.927,16.312,16.312,0,0,1-3.4-1.419,3.882,3.882,0,0,0-1.894-.49,3.99,3.99,0,0,0-2.846,1.2l-.747.76a.517.517,0,0,1-.741,0l-1.828-1.862a.541.541,0,0,1,0-.755l.746-.76a4.149,4.149,0,0,0,.694-4.829,16.973,16.973,0,0,1-1.394-3.466,4.026,4.026,0,0,0-3.855-2.947h-1.072a.53.53,0,0,1-.524-.534v-2.632a.53.53,0,0,1,.524-.534h1.163a4.046,4.046,0,0,0,3.845-2.885,16.964,16.964,0,0,1,1.406-3.357,4.147,4.147,0,0,0-.666-4.878l-.867-.883a.541.541,0,0,1,0-.755l1.828-1.862a.518.518,0,0,1,.741,0l.965.984a3.924,3.924,0,0,0,4.7.726,16.322,16.322,0,0,1,3.219-1.319,4.08,4.08,0,0,0,2.9-3.925V82.2a.53.53,0,0,1,.525-.534H174.7a.53.53,0,0,1,.524.534v1.538a4.042,4.042,0,0,0,2.831,3.9,16.368,16.368,0,0,1,3.121,1.333,3.97,3.97,0,0,0,4.749-.7l1.083-1.1a.517.517,0,0,1,.741,0l1.827,1.862a.541.541,0,0,1,0,.755l-1.082,1.1a4.16,4.16,0,0,0-.688,4.838,17,17,0,0,1,1.309,3.179,3.984,3.984,0,0,0,3.833,2.883h1.51a.531.531,0,0,1,.524.535v2.632a.53.53,0,0,1-.524.534h-1.412A4.028,4.028,0,0,0,189.192,108.444Z" transform="translate(-45.297 -61.59)" fill="#c388ff"/><path d="M214.412,131.23a12.952,12.952,0,1,0,12.951,12.952A12.966,12.966,0,0,0,214.412,131.23Zm0,22.353a9.4,9.4,0,1,1,9.4-9.4A9.411,9.411,0,0,1,214.412,153.583Z" transform="translate(-86.302 -102.594)" fill="#c388ff"/></g></svg>