<svg xmlns="http://www.w3.org/2000/svg" width="133.906" height="133.906" viewBox="0 0 133.906 133.906"><path d="M131.945,74.509a1.961,1.961,0,0,0,1.962-1.962v-4.8a12.544,12.544,0,0,0-12.53-12.53h-1.453a15.171,15.171,0,1,0-20.34,0H98.128A12.529,12.529,0,0,0,87.051,61.88q-.4-.124-.8-.232l-10.468-2.8V53.271A17.291,17.291,0,0,0,84.229,38.8H86.5a6.188,6.188,0,0,0,1.433-12.208V21.248a21.248,21.248,0,0,0-42.5,0V26.74A6.188,6.188,0,0,0,47.4,38.8h2.275a17.29,17.29,0,0,0,8.445,14.475v5.573l-10.468,2.8q-.4.108-.8.232a12.53,12.53,0,0,0-11.078-6.665H34.324a15.171,15.171,0,1,0-20.34,0H12.53A12.544,12.544,0,0,0,0,67.746v4.8a1.962,1.962,0,1,0,3.923,0v-4.8a8.617,8.617,0,0,1,8.607-8.607H35.778a8.6,8.6,0,0,1,7.439,4.282A20.492,20.492,0,0,0,32.5,81.406V91.94H3.923V81.7A1.962,1.962,0,1,0,0,81.7V93.9a1.961,1.961,0,0,0,1.962,1.962H46.1a24.5,24.5,0,0,0-3.393,8.356,1.962,1.962,0,0,0,3.845.78,20.821,20.821,0,1,1,0,8.326,1.962,1.962,0,0,0-3.845.78A24.745,24.745,0,1,0,87.812,95.863h44.133a1.961,1.961,0,0,0,1.962-1.962V81.7a1.962,1.962,0,1,0-3.923,0V91.94H101.41V81.406A20.492,20.492,0,0,0,90.689,63.421a8.6,8.6,0,0,1,7.439-4.282h23.248a8.617,8.617,0,0,1,8.607,8.607v4.8a1.961,1.961,0,0,0,1.962,1.962ZM12.906,43.968A11.248,11.248,0,1,1,24.194,55.215h-.081A11.26,11.26,0,0,1,12.906,43.968ZM62.79,68.133l-1.9,1.582a3.322,3.322,0,0,1-5.329-1.666L54.413,63.9l4.062-1.088a8.87,8.87,0,0,0,4.315,5.322Zm12.642-5.322L79.493,63.9l-1.15,4.151a3.322,3.322,0,0,1-5.329,1.665l-1.9-1.582a8.869,8.869,0,0,0,4.315-5.322Zm13.338-30.2A2.269,2.269,0,0,1,86.5,34.874H84.238V30.343H86.5A2.268,2.268,0,0,1,88.769,32.608Zm-39.4-11.36a17.325,17.325,0,1,1,34.649,0v5.172H77.521A3.326,3.326,0,0,1,74.2,23.1a1.962,1.962,0,1,0-3.923,0,3.326,3.326,0,0,1-3.322,3.322H49.364Zm-4.227,11.36A2.269,2.269,0,0,1,47.4,30.342h2.265v4.531H47.4A2.268,2.268,0,0,1,45.137,32.608Zm8.454,5.812V30.342H66.953a7.226,7.226,0,0,0,5.284-2.293,7.227,7.227,0,0,0,5.284,2.293h2.794V38.42a13.362,13.362,0,0,1-26.724,0ZM66.953,55.705a17.227,17.227,0,0,0,4.908-.714v5.357a4.908,4.908,0,0,1-9.815,0V54.991A17.227,17.227,0,0,0,66.953,55.705Zm30.534,25.7V91.94H84.7a24.69,24.69,0,0,0-35.493,0H36.419V81.406A16.557,16.557,0,0,1,48.669,65.438l1.954-.523L51.781,69.1A7.242,7.242,0,0,0,63.4,72.729l3.55-2.958,3.55,2.959A7.245,7.245,0,0,0,82.125,69.1l1.159-4.183,1.953.523A16.558,16.558,0,0,1,97.487,81.406ZM98.5,43.968a11.248,11.248,0,1,1,11.288,11.247h-.081A11.26,11.26,0,0,1,98.5,43.968Z" fill="#93b0ed"/><path d="M213.937,396.2a6.533,6.533,0,0,0,4.65-1.926L228.68,384.18a6.576,6.576,0,0,0-9.3-9.3l-5.444,5.444a6.576,6.576,0,0,0-9.264,9.335l4.615,4.615a6.533,6.533,0,0,0,4.65,1.926Zm-6.49-13.066a2.657,2.657,0,0,1,3.752,0l1.351,1.352a1.962,1.962,0,0,0,2.774,0l6.831-6.831a2.653,2.653,0,0,1,3.752,3.752L215.813,391.5a2.653,2.653,0,0,1-3.752,0l-4.615-4.614a2.656,2.656,0,0,1,0-3.752Z" transform="translate(-149.723 -275.416)" fill="#93b0ed"/></svg>