<svg xmlns="http://www.w3.org/2000/svg" xmlns:xlink="http://www.w3.org/1999/xlink" width="123.146" height="123.146" viewBox="0 0 123.146 123.146"><defs><clipPath id="a"><path d="M0,3.028H123.146V-120.118H0Z" transform="translate(0 120.118)" fill="none"/></clipPath><clipPath id="b"><rect width="199.637" height="199.637" fill="none" stroke="#44c6ff" stroke-width="1"/></clipPath></defs><g transform="translate(0 120.118)" opacity="0.547"><g transform="translate(0 -120.118)" clip-path="url(#a)"><g transform="translate(-42.595 -42.594)" opacity="0.5"><g clip-path="url(#b)"><g transform="translate(46.062 46.506)"><path d="M.938,0-37.208,38.146" transform="translate(37.208)" fill="none" stroke="#44c6ff" stroke-miterlimit="10" stroke-width="1"/></g><g transform="translate(124.128 123.684)"><path d="M0,.938,38.146-37.208" transform="translate(0 37.208)" fill="none" stroke="#44c6ff" stroke-miterlimit="10" stroke-width="1"/></g><g transform="translate(42.957 42.957)"><path d="M1.647,0-65.33,66.977" transform="translate(65.33)" fill="none" stroke="#44c6ff" stroke-miterlimit="10" stroke-width="1"/></g><g transform="translate(98.402 98.401)"><path d="M0,1.647,66.977-65.33" transform="translate(0 65.33)" fill="none" stroke="#44c6ff" stroke-miterlimit="10" stroke-width="1"/></g><g transform="translate(47.393 47.393)"><path d="M1.974,0-78.309,80.283" transform="translate(78.309)" fill="none" stroke="#44c6ff" stroke-miterlimit="10" stroke-width="1"/></g><g transform="translate(80.66 80.66)"><path d="M0,1.974,80.283-78.309" transform="translate(0 78.309)" fill="none" stroke="#44c6ff" stroke-miterlimit="10" stroke-width="1"/></g><g transform="translate(51.164 51.163)"><path d="M2.062,0-81.77,83.832" transform="translate(81.77)" fill="none" stroke="#44c6ff" stroke-miterlimit="10" stroke-width="1"/></g><g transform="translate(73.341 73.341)"><path d="M0,2.062,83.832-81.77" transform="translate(0 81.77)" fill="none" stroke="#44c6ff" stroke-miterlimit="10" stroke-width="1"/></g><g transform="translate(55.377 55.377)"><path d="M2.127,0-84.366,86.493" transform="translate(84.366)" fill="none" stroke="#44c6ff" stroke-miterlimit="10" stroke-width="1"/></g><g transform="translate(66.466 66.466)"><path d="M0,2.127,86.493-84.366" transform="translate(0 84.366)" fill="none" stroke="#44c6ff" stroke-miterlimit="10" stroke-width="1"/></g><g transform="translate(60.922 60.921)"><path d="M2.127,0-84.366,86.493" transform="translate(84.366)" fill="none" stroke="#44c6ff" stroke-miterlimit="10" stroke-width="1"/></g><g transform="translate(43.179 43.179)"><path d="M1.363,0-54.081,55.444" transform="translate(54.081)" fill="none" stroke="#44c6ff" stroke-miterlimit="10" stroke-width="1"/></g><g transform="translate(109.712 109.712)"><path d="M0,1.363,55.444-54.081" transform="translate(0 54.081)" fill="none" stroke="#44c6ff" stroke-miterlimit="10" stroke-width="1"/></g><g transform="translate(44.51 44.51)"><path d="M1.843,0l-74.96,74.96" transform="translate(73.117)" fill="none" stroke="#44c6ff" stroke-miterlimit="10" stroke-width="1"/></g><g transform="translate(88.865 88.866)"><path d="M0,1.843l74.96-74.96" transform="translate(0 73.117)" fill="none" stroke="#44c6ff" stroke-miterlimit="10" stroke-width="1"/></g></g></g></g></g></svg>