<svg xmlns="http://www.w3.org/2000/svg" width="96" height="96" viewBox="0 0 96 96"><g transform="translate(-343.13 -8386.13)"><g transform="translate(343.13 8386.13)" fill="none" stroke="#f1c08b" stroke-width="4"><circle cx="48" cy="48" r="48" stroke="none"/><circle cx="48" cy="48" r="46" fill="none"/></g><g transform="translate(420.378 8403.4) rotate(90)" fill="none"><path d="M23.648,11a9,9,0,0,1,14.9,0L52.682,31.861a9,9,0,0,1-7.451,14.048H16.967A9,9,0,0,1,9.516,31.861Z" stroke="none"/><path d="M 31.09930801391602 11.04712295532227 C 29.4138298034668 11.04712295532227 27.90500640869141 11.84744262695313 26.95972061157227 13.24287796020508 L 12.82780838012695 34.10427856445313 C 11.77154159545898 35.66350936889648 11.66780853271484 37.58767700195313 12.55031967163086 39.25143432617188 C 13.43283081054688 40.91521072387695 15.08407592773438 41.90850067138672 16.9674072265625 41.90850067138672 L 45.23120880126953 41.90850067138672 C 47.11454010009766 41.90850067138672 48.76578521728516 40.91521072387695 49.64828491210938 39.25144195556641 C 50.53079605102539 37.58768844604492 50.42706298828125 35.66350936889648 49.37079620361328 34.10426330566406 L 35.23890686035156 13.24288940429688 C 34.29360961914063 11.84744262695313 32.78477478027344 11.04712295532227 31.09930801391602 11.04712295532227 M 31.09930801391602 7.047122955322266 C 33.93247222900391 7.047122955322266 36.7656364440918 8.364578247070313 38.55057525634766 10.99948883056641 L 52.68247604370117 31.86087608337402 C 56.73095321655273 37.83718872070313 52.4496955871582 45.90850067138672 45.23120880126953 45.90850067138672 L 16.9674072265625 45.90850067138672 C 9.748920440673828 45.90850067138672 5.4676513671875 37.83718872070313 9.516128540039063 31.86087608337402 L 23.64804077148438 10.99948883056641 C 25.43297958374023 8.364578247070313 28.26614379882813 7.047122955322266 31.09930801391602 7.047122955322266 Z" stroke="none" fill="#f1c08b"/></g></g></svg>