<svg xmlns="http://www.w3.org/2000/svg" width="153.852" height="112.945" viewBox="0 0 153.852 112.945"><g transform="translate(0 -68.066)"><g transform="translate(118.018 116.26)"><path d="M410.471,231.1c-5.235-2.617-15.051-2.648-15.466-2.648a2.254,2.254,0,0,0,0,4.507c2.533,0,9.887.39,13.45,2.172a2.254,2.254,0,0,0,2.016-4.032Z" transform="translate(-392.751 -228.449)" fill="#93b0ed"/></g><g transform="translate(0 68.066)"><path d="M146.974,150.994l-9.308-2.659a.945.945,0,0,1-.682-.9v-3.107a16.939,16.939,0,0,0,2.155-1.767,16.579,16.579,0,0,0,5.074-11.994v-4.287l.9-1.8a14.377,14.377,0,0,0,1.51-6.4V106.465a2.254,2.254,0,0,0-2.254-2.254H122.682a14.319,14.319,0,0,0-14.3,14.3v.134a11.954,11.954,0,0,0,1.255,5.318l1.154,2.308v3.681a17.585,17.585,0,0,0,7.229,14.218v3.256c0,.5,0,.71-1.861,1.242l-4.542,1.3-13.138-4.777a2.251,2.251,0,0,0-.614-1.725l-4.2-4.411v-7.4c.444-.366.881-.741,1.305-1.139a26.451,26.451,0,0,0,8.334-19.229v-5.913a26.051,26.051,0,0,0,2.41-10.955V70.32a2.254,2.254,0,0,0-2.254-2.254H69.725A21.556,21.556,0,0,0,48.194,89.6v4.82a26.051,26.051,0,0,0,2.41,10.955v5.088a27.538,27.538,0,0,0,9.639,21.018v7.578l-4.2,4.411a2.251,2.251,0,0,0-.614,1.725l-13.866,5.042a11.818,11.818,0,0,0-2.786,1.46L36.6,150.6c6.482-2.821,8.535-6.789,8.633-6.986a2.253,2.253,0,0,0,0-2.016c-1.625-3.249-1.822-9.206-1.98-13.991-.053-1.593-.1-3.1-.2-4.439-.768-10.81-8.986-18.962-19.116-18.962S5.593,112.363,4.825,123.173c-.1,1.341-.145,2.846-.2,4.439-.158,4.785-.355,10.741-1.98,13.99a2.253,2.253,0,0,0,0,2.016c.1.2,2.148,4.157,8.642,6.982l-6.048,3.024A9.434,9.434,0,0,0,0,162.106v16.65a2.254,2.254,0,1,0,4.507,0v-16.65a4.949,4.949,0,0,1,2.75-4.45l7.531-3.765,2.62,2.49a9.478,9.478,0,0,0,13.065,0l2.619-2.489,2.456,1.228a11.868,11.868,0,0,0-1.813,6.292v17.346a2.254,2.254,0,1,0,4.507,0V161.411a7.408,7.408,0,0,1,4.861-6.94l14.62-5.316,6.086,9.129a4.646,4.646,0,0,0,3.42,2.054q.233.023.465.023a4.645,4.645,0,0,0,3.292-1.366l3.713-3.713v23.476a2.254,2.254,0,0,0,4.507,0V155.281l3.713,3.713a4.643,4.643,0,0,0,3.292,1.366q.231,0,.465-.023a4.646,4.646,0,0,0,3.421-2.054l6.086-9.129,14.619,5.316a7.408,7.408,0,0,1,4.861,6.94v17.346a2.254,2.254,0,1,0,4.507,0V161.411a11.914,11.914,0,0,0-3.333-8.246l.557-.159a12.357,12.357,0,0,0,2.1-.757L125.247,158v20.754a2.254,2.254,0,1,0,4.507,0V158l5.714-5.714a5.362,5.362,0,0,0,.959.381l9.308,2.659a5,5,0,0,1,3.609,4.784v18.644a2.254,2.254,0,1,0,4.507,0V160.113A9.524,9.524,0,0,0,146.974,150.994ZM14.458,147.014a16.2,16.2,0,0,1-7.233-4.644,24.842,24.842,0,0,0,1.285-5.4,16.805,16.805,0,0,0,5.948,7.339Zm12.911,6.1a4.973,4.973,0,0,1-6.855,0l-2.1-1.992a4.663,4.663,0,0,0,.548-2.2v-2.4a16.759,16.759,0,0,0,9.951,0v2.4a4.663,4.663,0,0,0,.548,2.2Zm-3.427-10.346a12.218,12.218,0,0,1-12.2-12.2,2.24,2.24,0,0,0-2.624-2.221c.007-.194.013-.388.02-.58.05-1.55.1-3.013.188-4.269a16.732,16.732,0,0,1,4.556-10.508,14,14,0,0,1,20.128,0,16.732,16.732,0,0,1,4.556,10.508c.089,1.255.138,2.719.189,4.268l.014.4a20.25,20.25,0,0,0-11.132-8.134,28.285,28.285,0,0,0-8.572-1.358,2.254,2.254,0,0,0-1.56.688l-4.066,4.217a2.254,2.254,0,1,0,3.245,3.129l3.384-3.509c2.914.142,12.288,1.233,15.934,9.261A12.175,12.175,0,0,1,23.942,142.767Zm9.481,4.254v-2.688a16.67,16.67,0,0,0,5.95-7.347,24.81,24.81,0,0,0,1.283,5.384A16.279,16.279,0,0,1,33.423,147.021Zm21.688-36.562v-5.592a2.254,2.254,0,0,0-.224-.98A21.618,21.618,0,0,1,52.7,94.417V89.6A17.043,17.043,0,0,1,69.725,72.574h31.482V94.417a21.617,21.617,0,0,1-2.185,9.471,2.254,2.254,0,0,0-.224.98v6.417a21.636,21.636,0,0,1-6.909,15.94,22.43,22.43,0,0,1-1.73,1.465l-.039.028A21.67,21.67,0,0,1,75.5,133.081C64.065,132.341,55.111,122.4,55.111,110.459ZM67.8,155.806a.142.142,0,0,1-.126.045.143.143,0,0,1-.114-.069l-7.009-10.514,2.255-2.37,10.633,7.268Zm9.154-8.7-12.2-8.342V134.56A25.375,25.375,0,0,0,75.2,137.578q.891.058,1.773.057a26.105,26.105,0,0,0,12.181-2.985v4.117Zm9.394,8.674a.143.143,0,0,1-.114.069.139.139,0,0,1-.126-.045l-5.639-5.639L91.1,142.9l2.256,2.37Zm41.153-1.9-5.114-5.114a6.182,6.182,0,0,0,.139-1.339v-.951a15.8,15.8,0,0,0,4.463.788c.174.005.346.008.519.008a16.74,16.74,0,0,0,4.969-.752v.907a5.387,5.387,0,0,0,.163,1.313Zm8.5-14.56a12.113,12.113,0,0,1-8.876,3.439c-6.522-.2-11.828-5.94-11.828-12.8v-4.213a2.251,2.251,0,0,0-.238-1.008l-1.392-2.784a7.424,7.424,0,0,1-.779-3.3v-.134a9.806,9.806,0,0,1,9.795-9.795h19.434v9.36a9.847,9.847,0,0,1-1.034,4.381l-1.138,2.275a2.252,2.252,0,0,0-.238,1.008v4.819A12.108,12.108,0,0,1,136,139.322Z" transform="translate(0 -68.066)" fill="#93b0ed"/></g><g transform="translate(139.705 162.044)"><path d="M467.177,380.814a2.254,2.254,0,0,0-2.254,2.254v14.458a2.254,2.254,0,1,0,4.507,0V383.068A2.254,2.254,0,0,0,467.177,380.814Z" transform="translate(-464.923 -380.814)" fill="#93b0ed"/></g><g transform="translate(9.639 165.023)"><path d="M34.331,390.728a2.254,2.254,0,0,0-2.254,2.254v11.479a2.254,2.254,0,0,0,4.507,0V392.982A2.254,2.254,0,0,0,34.331,390.728Z" transform="translate(-32.077 -390.728)" fill="#93b0ed"/></g><g transform="translate(57.833 88.54)"><path d="M230.043,142.9c-8.524-8.524-26.358-6.894-33.63-5.8a4.627,4.627,0,0,0-3.953,4.609V146.9a2.254,2.254,0,1,0,4.507,0v-5.192a.149.149,0,0,1,.118-.152,71.2,71.2,0,0,1,14.641-.715c7.028.468,12.118,2.232,15.129,5.244a2.254,2.254,0,1,0,3.187-3.187Z" transform="translate(-192.46 -136.203)" fill="#93b0ed"/></g><g transform="translate(48.194 166.864)"><path d="M162.638,396.853a2.254,2.254,0,0,0-2.254,2.254v9.639a2.254,2.254,0,1,0,4.507,0v-9.639A2.254,2.254,0,0,0,162.638,396.853Z" transform="translate(-160.384 -396.853)" fill="#93b0ed"/></g><g transform="translate(101.207 166.864)"><path d="M339.06,396.853a2.254,2.254,0,0,0-2.254,2.254v9.639a2.254,2.254,0,0,0,4.507,0v-9.639A2.254,2.254,0,0,0,339.06,396.853Z" transform="translate(-336.806 -396.853)" fill="#93b0ed"/></g></g></svg>