<svg xmlns="http://www.w3.org/2000/svg" width="126.5" height="126.5" viewBox="0 0 126.5 126.5"><g transform="translate(60.715 121.559)"><path d="M249.957,492.724a2.469,2.469,0,1,0,.724,1.747A2.488,2.488,0,0,0,249.957,492.724Z" transform="translate(-245.74 -492)" fill="#93b0ed"/></g><g transform="translate(0 26.05)"><path d="M113.3,160.2l-8.242-1.969v-3.269a16.306,16.306,0,0,0,7.622-13.791v-9.208a16.3,16.3,0,0,0-28.507-10.8,21.782,21.782,0,0,0-20.893-15.719h0A21.781,21.781,0,0,0,42.369,121.2a16.3,16.3,0,0,0-28.545,10.76v9.208a16.305,16.305,0,0,0,7.622,13.791v3.269L13.2,160.2A17.144,17.144,0,0,0,0,176.925v16.608A2.471,2.471,0,0,0,2.471,196H22.227v7.412a2.471,2.471,0,0,0,2.471,2.471H51.8a2.471,2.471,0,0,0,0-4.941H40.773V190.071a2.471,2.471,0,0,0-4.941,0v10.874H27.168V189.8a17.988,17.988,0,0,1,13.84-17.547l12.152-2.912,7.819,17.788A2.47,2.47,0,0,0,63.24,188.6h0a2.471,2.471,0,0,0,2.262-1.476l7.811-17.762,12.116,2.894a17.986,17.986,0,0,1,13.852,17.55v2.757a2.475,2.475,0,0,0,0,1.933v6.446H90.669V190.071a2.471,2.471,0,1,0-4.941,0v10.874h-12.1a2.471,2.471,0,0,0,0,4.941h28.125a2.471,2.471,0,0,0,2.471-2.471V196h19.807a2.471,2.471,0,0,0,2.471-2.471V176.925A17.144,17.144,0,0,0,113.3,160.2Zm-16.928-39.6a11.379,11.379,0,0,1,11.366,11.365v.86h-7.067a30.527,30.527,0,0,1-15.207-4.058A11.387,11.387,0,0,1,96.369,120.594ZM85,140.764c.009-.252.015-6.643.015-6.643a35.47,35.47,0,0,0,15.65,3.641h7.067v3.406a11.366,11.366,0,0,1-22.732,0v-.4ZM46.474,127.179a16.8,16.8,0,0,1,33.6,0v.322l-9.17-5.387a2.47,2.47,0,0,0-3.145.543,18.659,18.659,0,0,1-14.335,6.69H46.474Zm-27.709,5.392v-.612a11.366,11.366,0,0,1,22.273-3.2,30.529,30.529,0,0,1-15.207,4.058H18.765Zm0,8.6v-3.406h7.067A35.469,35.469,0,0,0,41.5,134.113v7.054a11.366,11.366,0,0,1-22.731,0ZM22.227,189.8v1.265h-7.4V180.085a2.471,2.471,0,1,0-4.941,0v10.977H4.941V176.925A12.218,12.218,0,0,1,14.352,165l7.832-1.871,5.111,12.244A22.936,22.936,0,0,0,22.227,189.8Zm7.9-20.454-3.752-8.988c0-.059.008-.118.008-.178v-3.142a16.2,16.2,0,0,0,7.472,0v2.982c0,.046,0,.093,0,.139,0,.078.007.155.015.232Zm9.725-1.9a23.224,23.224,0,0,0-4.177,1.436l2.406-5.762L45.919,165a12.245,12.245,0,0,1,1.772.572ZM52.12,162.3a17.155,17.155,0,0,0-5.05-2.1l-8.27-1.982v-3.24a16.424,16.424,0,0,0,5.106-5.091,21.9,21.9,0,0,0,8.214,8.783Zm17.29,3.668-6.17,14.03-6.179-14.058v-5.1a21.76,21.76,0,0,0,12.349.023v5.1Zm-6.135-9.158a16.82,16.82,0,0,1-16.8-16.8v-5.715h6.952a23.58,23.58,0,0,0,16.7-6.9l9.937,5.838v7.36A16.818,16.818,0,0,1,63.275,156.805Zm11.076,1.9h0a21.9,21.9,0,0,0,8.27-8.786,16.433,16.433,0,0,0,5.078,5.048v3.24l-8.27,1.982a17.16,17.16,0,0,0-5.078,2.123v-3.607Zm12.225,8.747-7.814-1.867a12.268,12.268,0,0,1,1.818-.59l7.814-1.872,2.416,5.788A23.226,23.226,0,0,0,86.577,167.453Zm6.048-7.024a2.471,2.471,0,0,0,.017-.27c0-.023,0-.046,0-.069v-3.051a16.194,16.194,0,0,0,7.472,0v3.142c0,.045,0,.089.006.134l-3.772,9.033Zm28.933,30.633h-4.941V180.085a2.471,2.471,0,1,0-4.941,0v10.977h-7.453V189.81A22.935,22.935,0,0,0,99.17,175.4l5.127-12.277L112.148,165a12.218,12.218,0,0,1,9.41,11.922Z" transform="translate(0 -105.437)" fill="#93b0ed"/></g><g transform="translate(52.493 57.135)"><path d="M216.677,231.974a2.469,2.469,0,1,0,.724,1.747A2.488,2.488,0,0,0,216.677,231.974Z" transform="translate(-212.46 -231.25)" fill="#93b0ed"/></g><g transform="translate(69.014 57.135)"><path d="M283.547,231.974a2.469,2.469,0,1,0,.724,1.747A2.488,2.488,0,0,0,283.547,231.974Z" transform="translate(-279.33 -231.25)" fill="#93b0ed"/></g><g transform="translate(57.643 65.452)"><path d="M243.669,265.637a2.471,2.471,0,0,0-3.494,0,1.876,1.876,0,0,1-2.65,0,2.471,2.471,0,1,0-3.494,3.494,6.823,6.823,0,0,0,9.638,0A2.471,2.471,0,0,0,243.669,265.637Z" transform="translate(-233.307 -264.913)" fill="#93b0ed"/></g><g transform="translate(97.993 13.342)"><path d="M400.785,54h-1.695a2.471,2.471,0,0,0,0,4.941h1.695a2.471,2.471,0,0,0,0-4.941Z" transform="translate(-396.62 -54)" fill="#93b0ed"/></g><g transform="translate(109.981 13.342)"><path d="M449.306,54h-1.695a2.471,2.471,0,0,0,0,4.941h1.695a2.471,2.471,0,0,0,0-4.941Z" transform="translate(-445.141 -54)" fill="#93b0ed"/></g><g transform="translate(104.835 18.489)"><path d="M426.782,74.831a2.471,2.471,0,0,0-2.471,2.471V79a2.471,2.471,0,0,0,4.941,0V77.3A2.471,2.471,0,0,0,426.782,74.831Z" transform="translate(-424.311 -74.831)" fill="#93b0ed"/></g><g transform="translate(104.835 6.5)"><path d="M426.782,26.31a2.471,2.471,0,0,0-2.471,2.471v1.695a2.471,2.471,0,1,0,4.941,0V28.781A2.471,2.471,0,0,0,426.782,26.31Z" transform="translate(-424.311 -26.31)" fill="#93b0ed"/></g><g transform="translate(9.745 13.342)"><path d="M43.609,54H41.915a2.471,2.471,0,1,0,0,4.941h1.694a2.471,2.471,0,1,0,0-4.941Z" transform="translate(-39.444 -54)" fill="#93b0ed"/></g><g transform="translate(21.734 13.342)"><path d="M92.13,54H90.436a2.471,2.471,0,0,0,0,4.941H92.13a2.471,2.471,0,0,0,0-4.941Z" transform="translate(-87.965 -54)" fill="#93b0ed"/></g><g transform="translate(16.587 18.489)"><path d="M69.6,74.831A2.471,2.471,0,0,0,67.134,77.3V79a2.471,2.471,0,0,0,4.941,0V77.3A2.471,2.471,0,0,0,69.6,74.831Z" transform="translate(-67.134 -74.831)" fill="#93b0ed"/></g><g transform="translate(16.587 6.5)"><path d="M69.6,26.31a2.471,2.471,0,0,0-2.471,2.471v1.695a2.471,2.471,0,1,0,4.941,0V28.781A2.471,2.471,0,0,0,69.6,26.31Z" transform="translate(-67.134 -26.31)" fill="#93b0ed"/></g><g transform="translate(60.779 9.41)"><path d="M248.471,38.087A2.471,2.471,0,0,0,246,40.558v6.5a2.471,2.471,0,0,0,4.941,0v-6.5A2.471,2.471,0,0,0,248.471,38.087Z" transform="translate(-246 -38.087)" fill="#93b0ed"/></g><g transform="translate(60.779)"><path d="M250.217.724A2.471,2.471,0,0,0,246,2.471,2.471,2.471,0,1,0,250.217.724Z" transform="translate(-246)" fill="#93b0ed"/></g><g transform="translate(46.758 5.573)"><path d="M197.083,26.9l-3.616-3.616a2.471,2.471,0,0,0-3.494,3.494l3.616,3.616a2.471,2.471,0,0,0,3.494-3.494Z" transform="translate(-189.249 -22.556)" fill="#93b0ed"/></g><g transform="translate(71.064 5.437)"><path d="M295.58,22.73a2.471,2.471,0,0,0-3.494,0l-3.736,3.736a2.471,2.471,0,0,0,3.494,3.494l3.736-3.736A2.471,2.471,0,0,0,295.58,22.73Z" transform="translate(-287.625 -22.006)" fill="#93b0ed"/></g></svg>