<svg xmlns="http://www.w3.org/2000/svg" width="116" height="115.998" viewBox="0 0 116 115.998"><g transform="translate(0 -0.009)"><g transform="translate(0 0.009)"><path d="M113.481,19.568,59.367.235a3.968,3.968,0,0,0-2.641,0L2.625,19.568a3.867,3.867,0,0,0,0,7.275l26.429,9.442V48.34c0,7.517,26.032,7.733,29,7.733s29-.217,29-7.733V36.286l5.8-2.059v4.447a3.867,3.867,0,0,0,3.867,3.867h3.867a3.867,3.867,0,0,0,3.867-3.867v-5.8a5.716,5.716,0,0,0-.63-2.573l9.667-3.457a3.867,3.867,0,0,0,0-7.275ZM83.187,44.087c-7.364-3.352-22.881-3.48-25.133-3.48s-17.769.128-25.133,3.48V27.244c1.16-1.489,10.278-4.037,25.133-4.037s23.973,2.548,25.133,4.037Zm-25.133,8.12c-14.307,0-23.291-2.363-24.971-3.867,1.68-1.5,10.668-3.867,24.971-3.867s23.291,2.362,24.971,3.867C81.345,49.844,72.361,52.207,58.054,52.207ZM93.761,29.79l-6.707,2.392V27.074c0-7.517-26.032-7.733-29-7.733s-29,.217-29,7.733v5.106L3.921,23.207,58.081,3.874l38.64,13.808v9.748A5.811,5.811,0,0,0,93.761,29.79Zm6.827,8.884H96.721v-5.8a1.933,1.933,0,1,1,3.867,0Zm0-11.322V19.064l11.6,4.143Z" transform="translate(-0.054 -0.009)" fill="#44c6ff"/><path d="M110.2,264.533a1.9,1.9,0,0,0-.346.031A323.713,323.713,0,0,1,58,268.4a323.713,323.713,0,0,1-51.854-3.836,2.182,2.182,0,0,0-.346-.031c-1.353,0-5.8,1.533-5.8,21.267s4.447,21.267,5.8,21.267a2.212,2.212,0,0,0,.346-.035A302.385,302.385,0,0,1,45.973,303.4L42.2,312.453a3.851,3.851,0,0,0,5.11,4.963l1.479-.632.64,1.471a3.845,3.845,0,0,0,3.555,2.345h.048a3.853,3.853,0,0,0,3.544-2.413l3.358-8.039,3.347,8.008a3.866,3.866,0,0,0,3.555,2.444h.058a3.839,3.839,0,0,0,3.542-2.32l.646-1.483,1.456.624a3.853,3.853,0,0,0,5.121-4.986l-3.7-8.874a294.766,294.766,0,0,1,35.906,3.48,1.9,1.9,0,0,0,.336.025c1.353,0,5.8-1.533,5.8-21.267s-4.447-21.267-5.8-21.267Zm-46.013,7.675a40.727,40.727,0,0,1,1.394,9.042A13.415,13.415,0,0,0,52.123,282.5a52.241,52.241,0,0,0-1.328-10.309q3.513.074,7.206.074C60.113,272.266,62.164,272.243,64.187,272.208ZM59.933,303.2a9.667,9.667,0,1,1,9.667-9.667A9.666,9.666,0,0,1,59.933,303.2ZM5.8,269.366A54.226,54.226,0,0,1,7.733,285.8,54.226,54.226,0,0,1,5.8,302.233,54.226,54.226,0,0,1,3.867,285.8,54.226,54.226,0,0,1,5.8,269.366Zm3.905,33.2c1.058-3.066,1.895-8.2,1.895-16.762s-.837-13.7-1.9-16.766a339.23,339.23,0,0,0,37.052,3.06A49.765,49.765,0,0,1,48.333,285.8c0,.28,0,.547-.012.816a13.394,13.394,0,0,0-.623,12.667l-.085.205a336.713,336.713,0,0,0-37.909,3.078Zm43.282,14.171-1.411-3.248a1.933,1.933,0,0,0-2.535-1.005l-3.254,1.438,4.534-10.869a13.52,13.52,0,0,0,6.828,3.732Zm17.839-4.253a1.933,1.933,0,0,0-2.535,1.005L66.86,316.7l-4.145-9.924a13.534,13.534,0,0,0,6.834-3.733l4.524,10.827Zm38.988-9.377a313.135,313.135,0,0,0-37.507-3.48l-.137-.332a13.454,13.454,0,0,0-2.606-15.246,53.815,53.815,0,0,0-1.38-11.911,322.7,322.7,0,0,0,41.63-3.639c.9,1.523,2.32,7.55,2.32,17.305s-1.433,15.78-2.32,17.3Z" transform="translate(0 -204.602)" fill="#44c6ff"/></g></g></svg>